<?xml version="1.0" standalone="no"?>
<!DOCTYPE svg PUBLIC "-//W3C//DTD SVG 20010904//EN"
 "http://www.w3.org/TR/2001/REC-SVG-20010904/DTD/svg10.dtd">
<svg version="1.0" xmlns="http://www.w3.org/2000/svg"
 width="1200.000000pt" height="840.000000pt" viewBox="0 0 1200.000000 840.000000"
 preserveAspectRatio="xMidYMid meet">

<g transform="translate(0.000000,840.000000) scale(0.100000,-0.100000)"
fill="#000000" stroke="none">
<path d="M0 8093 l1 -308 32 54 c77 128 281 424 342 495 25 29 45 56 45 60 0
3 -94 6 -210 6 l-210 0 0 -307z"/>
<path d="M416 8314 c-38 -47 -93 -120 -121 -163 -28 -42 -95 -139 -147 -216
-156 -229 -148 -209 -148 -393 l1 -157 36 70 c46 89 322 518 400 621 33 44 75
102 93 129 19 28 60 80 92 118 32 37 58 70 58 72 0 3 -44 5 -97 5 l-98 0 -69
-86z"/>
<path d="M664 8302 c-73 -88 -124 -157 -283 -381 -30 -42 -101 -150 -157 -241
-94 -150 -102 -166 -86 -178 38 -29 166 -105 327 -195 l170 -95 40 62 c22 33
60 95 84 136 43 74 185 279 287 415 80 107 302 369 402 475 l89 95 -96 3
c-130 4 -153 -1 -171 -41 -19 -39 -58 -62 -92 -54 -14 4 -48 27 -76 52 l-50
45 -153 0 -154 0 -81 -98z m409 -18 c86 -67 137 -111 137 -119 0 -12 -25 -3
-56 20 -40 31 -44 31 -44 1 0 -13 -13 -38 -29 -55 -52 -56 -137 -37 -167 36
-8 19 -12 44 -8 56 8 29 54 77 72 77 8 0 12 6 9 14 -5 13 0 26 10 26 3 0 37
-25 76 -56z m-171 -201 c38 -26 72 -51 75 -56 11 -18 -9 -20 -36 -4 -16 9 -31
17 -34 17 -8 0 -97 -118 -97 -128 0 -6 11 -19 25 -30 25 -20 33 -42 16 -42
-11 0 -116 86 -143 116 -33 37 -38 68 -18 112 22 49 62 74 108 68 19 -3 65
-27 104 -53z"/>
<path d="M990 8283 c-32 -12 -60 -47 -60 -76 0 -34 48 -87 80 -87 28 0 80 52
80 80 0 12 -15 37 -34 56 -35 35 -40 37 -66 27z"/>
<path d="M742 8094 c-53 -37 -50 -98 6 -140 l35 -27 19 24 c10 13 32 41 48 61
17 20 30 40 30 45 0 15 -66 53 -91 53 -13 0 -35 -7 -47 -16z"/>
<path d="M1132 8365 c45 -42 89 -47 112 -13 30 42 22 48 -66 48 l-83 -1 37
-34z"/>
<path d="M1534 8327 c-173 -179 -451 -511 -531 -634 -18 -29 -64 -95 -102
-148 -38 -52 -91 -132 -118 -175 -26 -44 -60 -99 -75 -123 -14 -23 -27 -47
-27 -53 -1 -12 72 -59 194 -124 44 -24 107 -60 140 -80 94 -58 223 -134 300
-175 39 -21 117 -66 175 -100 125 -73 170 -99 230 -133 25 -13 104 -59 175
-102 72 -42 162 -94 200 -115 39 -21 142 -81 230 -133 88 -52 197 -114 242
-139 l82 -44 95 143 c224 333 362 496 641 753 50 46 119 105 155 132 36 27 91
70 122 95 57 47 215 153 295 199 24 13 43 29 43 35 0 6 -23 48 -50 93 -28 46
-71 122 -97 170 -26 47 -61 109 -78 136 -18 28 -74 124 -125 215 -51 91 -122
213 -158 273 l-65 107 -416 0 -416 0 -95 -95 c-52 -52 -98 -95 -102 -95 -22 0
-1 33 68 108 l76 82 -469 0 -470 -1 -69 -72z m73 -38 c16 -16 5 -39 -17 -39
-25 0 -35 18 -20 35 15 18 22 19 37 4z m781 -91 c31 -31 -10 -75 -43 -48 -19
16 -19 25 1 44 19 19 26 20 42 4z m-912 -69 c8 -14 -21 -43 -35 -35 -19 12
-13 46 8 46 11 0 23 -5 27 -11z m904 -88 c0 -130 -12 -221 -28 -221 -13 0 -14
19 -8 141 3 78 9 146 12 150 14 23 24 -8 24 -70z m-1042 -74 c4 -20 -25 -34
-40 -19 -15 15 -1 44 19 40 10 -2 19 -11 21 -21z m730 -54 c2 -13 10 -23 19
-23 17 0 132 -69 168 -101 19 -17 24 -17 62 -4 47 16 77 10 107 -24 27 -30 25
-95 -4 -126 -33 -36 -101 -35 -137 1 -22 22 -25 32 -21 75 3 29 1 49 -5 49 -6
0 -53 27 -105 61 -52 33 -99 58 -106 56 -6 -3 -22 -34 -35 -71 -22 -63 -33
-77 -45 -57 -8 12 23 104 39 116 9 8 10 16 3 28 -7 13 -6 23 3 33 18 22 53 13
57 -13z m1271 1 c36 -46 19 -105 -35 -118 -61 -16 -116 42 -94 99 19 51 95 62
129 19z m-508 -34 c29 -16 26 -67 -6 -82 -19 -9 -29 -8 -50 6 -30 20 -32 39
-5 66 23 23 33 24 61 10z m349 -15 c0 -13 -22 -15 -132 -16 -176 -2 -186 0
-173 20 4 7 61 11 156 11 126 0 149 -2 149 -15z m-1971 -49 c9 -10 8 -16 -4
-26 -21 -17 -51 6 -34 26 6 8 15 14 19 14 4 0 13 -6 19 -14z m1521 -9 c0 -18
-249 -92 -262 -79 -14 14 0 20 121 58 120 36 141 40 141 21z m-750 -82 c21
-26 8 -50 -30 -52 -86 -5 -236 -39 -257 -58 -13 -12 -32 -60 -50 -125 -22 -78
-34 -106 -47 -108 -22 -5 -18 19 25 151 16 49 26 93 23 98 -11 18 18 39 50 37
17 -1 66 6 108 15 42 9 86 17 96 17 10 0 27 9 37 20 22 24 29 25 45 5z m-892
-86 c4 -21 -26 -33 -44 -18 -7 6 -10 17 -7 25 7 20 47 14 51 -7z m1328 -80
c16 -42 17 -79 4 -79 -12 0 -26 33 -36 85 -9 49 14 44 32 -6z m-1448 -87 c3
-16 -2 -22 -17 -22 -24 0 -33 13 -25 35 9 23 38 14 42 -13z m2940 -10 c3 -16
-2 -22 -17 -22 -26 0 -36 17 -20 36 16 19 33 13 37 -14z m-1450 -34 c3 -24 0
-28 -23 -28 -27 0 -41 20 -31 46 10 27 51 13 54 -18z m-23 -85 c-4 -21 -7 -53
-7 -71 0 -26 -5 -36 -24 -44 -13 -6 -24 -16 -24 -23 0 -6 -30 -47 -67 -91 -38
-45 -80 -96 -95 -115 -22 -29 -27 -31 -33 -17 -5 12 4 32 26 60 44 56 142 171
153 179 5 4 6 14 3 23 -4 10 1 23 13 33 11 10 20 25 20 35 0 27 19 68 31 68 8
0 9 -11 4 -37z m-835 12 c7 -8 9 -22 6 -31 -4 -9 0 -24 8 -33 8 -9 37 -61 64
-116 42 -83 56 -103 83 -115 20 -9 35 -23 37 -35 2 -18 17 -23 107 -38 58 -10
128 -24 157 -32 46 -11 54 -11 63 2 17 23 50 12 53 -18 4 -31 -22 -46 -46 -27
-8 7 -25 11 -37 10 -28 -4 -276 45 -288 57 -5 5 -21 4 -37 -2 -39 -15 -62 5
-58 49 1 17 -3 38 -9 45 -20 24 -113 202 -113 215 0 7 -9 15 -19 19 -26 8 -33
31 -15 50 19 19 28 19 44 0z m2138 -6 c3 -17 -23 -33 -39 -23 -5 3 -9 14 -9
25 0 15 6 20 22 17 13 -2 24 -10 26 -19z m-304 -5 c32 -31 11 -84 -32 -84 -50
0 -69 45 -35 82 20 22 46 23 67 2z m-2579 -34 c9 -15 -14 -40 -31 -33 -22 8
-18 43 5 43 11 0 23 -5 26 -10z m2715 -66 c11 -12 10 -18 -3 -32 -16 -15 -18
-15 -34 0 -13 14 -14 20 -3 32 7 9 16 16 20 16 4 0 13 -7 20 -16z m-162 -147
c2 -12 -3 -17 -17 -17 -15 0 -21 6 -21 21 0 25 33 22 38 -4z m-150 -135 c3
-18 -1 -22 -22 -22 -19 0 -26 5 -26 18 0 39 43 43 48 4z m-215 -47 c1 -5 -6
-11 -15 -13 -11 -2 -18 3 -18 13 0 17 30 18 33 0z m75 -98 c4 -20 -25 -34 -40
-19 -15 15 -1 44 19 40 10 -2 19 -11 21 -21z m-142 -166 c-4 -6 -16 -11 -27
-11 -21 0 -27 35 -6 43 16 6 41 -18 33 -32z m-128 -144 c4 -20 -25 -34 -40
-19 -15 15 -1 44 19 40 10 -2 19 -11 21 -21z m-125 -161 c7 -18 -1 -26 -25
-26 -18 0 -25 20 -11 33 11 12 31 8 36 -7z m-109 -172 c8 -21 -1 -34 -25 -34
-12 0 -19 7 -19 18 0 34 33 45 44 16z"/>
<path d="M3496 8368 c9 -18 29 -51 44 -73 14 -22 48 -80 75 -130 26 -49 89
-160 140 -245 51 -85 110 -186 130 -225 59 -109 156 -265 165 -265 5 0 36 16
69 36 117 70 490 228 667 282 286 89 594 141 1009 170 l100 7 3 238 2 237
-305 0 c-298 0 -305 0 -305 -20 0 -11 -4 -20 -10 -20 -5 0 -14 9 -20 20 -11
20 -21 20 -896 20 l-885 0 17 -32z m1819 -38 c8 -26 -1 -40 -26 -40 -22 0 -34
22 -25 45 8 22 44 18 51 -5z m283 -18 c4 -28 -24 -40 -45 -19 -21 21 -9 49 19
45 15 -2 24 -11 26 -26z m-68 1 c2 -2 -2 -8 -10 -14 -22 -13 -172 -7 -177 8
-6 18 167 24 187 6z m328 -276 c4 -21 -25 -34 -40 -19 -8 8 -8 16 2 27 16 19
34 15 38 -8z m-209 4 c19 -12 6 -41 -19 -41 -13 0 -20 7 -20 18 0 31 14 39 39
23z m-199 -26 c15 -18 5 -35 -20 -35 -10 0 -22 5 -25 10 -7 11 12 40 25 40 4
0 13 -7 20 -15z m-202 -43 c3 -16 -2 -22 -17 -22 -24 0 -35 15 -27 36 9 23 40
13 44 -14z m-200 -46 c-2 -13 -10 -21 -23 -21 -23 0 -33 34 -14 45 20 13 40
-1 37 -24z m-703 -31 c0 -25 -4 -30 -25 -30 -16 0 -26 6 -28 18 -6 30 6 49 30
45 18 -2 23 -9 23 -33z m503 -18 c4 -20 -25 -34 -40 -19 -15 15 -1 44 19 40
10 -2 19 -11 21 -21z m-198 -63 c0 -20 -30 -30 -40 -13 -11 17 7 40 26 32 8
-3 14 -12 14 -19z m-192 -72 c3 -16 -2 -22 -17 -22 -24 0 -35 15 -27 36 9 23
40 13 44 -14z m-180 -85 c2 -9 -4 -20 -13 -23 -20 -8 -50 19 -40 36 10 17 49
8 53 -13z m-190 -90 c4 -21 -25 -34 -40 -19 -8 8 -8 16 2 27 16 19 34 15 38
-8z"/>
<path d="M5940 8161 l0 -238 118 -7 c317 -18 610 -64 900 -141 177 -47 551
-199 741 -301 69 -37 86 -43 96 -32 19 21 121 189 150 248 15 30 75 136 134
235 59 99 120 205 136 235 15 30 52 94 82 142 29 47 53 89 53 92 0 3 -88 6
-196 6 l-196 0 -20 -25 c-11 -14 -28 -25 -38 -25 -10 0 -27 11 -38 25 l-20 25
-586 0 c-449 0 -591 -3 -606 -12 -16 -10 -24 -10 -40 0 -15 9 -103 12 -345 12
l-325 0 0 -239z m128 -128 c5 -17 -26 -29 -40 -15 -6 6 -7 15 -3 22 9 14 37 9
43 -7z m208 -4 c3 -6 0 -18 -9 -26 -18 -18 -37 -9 -37 18 0 21 34 27 46 8z
m202 -32 c4 -20 -25 -34 -40 -19 -15 15 -1 44 19 40 10 -2 19 -11 21 -21z
m201 -20 c8 -10 7 -19 -4 -33 -12 -17 -15 -18 -30 -3 -17 17 -11 49 10 49 7 0
18 -6 24 -13z m204 -51 c7 -19 -18 -40 -38 -32 -15 6 -20 28 -8 39 12 12 41 7
46 -7z m340 -27 c23 -37 -25 -68 -52 -35 -9 11 -10 20 -1 36 13 24 38 23 53
-1z m-145 -38 c-2 -9 -13 -17 -26 -19 -16 -3 -22 2 -22 16 0 11 6 22 13 25 20
7 38 -4 35 -22z m192 -60 c0 -11 -5 -23 -11 -27 -15 -9 -33 12 -26 30 9 23 37
20 37 -3z m195 -76 c0 -13 -8 -21 -22 -23 -17 -3 -23 2 -23 16 0 10 3 22 7 26
13 13 38 1 38 -19z m185 -80 c15 -18 5 -35 -21 -35 -14 0 -19 7 -19 25 0 28
21 33 40 10z m190 -104 c0 -21 -27 -31 -45 -17 -16 12 -17 16 -6 30 10 12 18
13 32 5 10 -5 19 -13 19 -18z"/>
<path d="M8361 8328 c-24 -40 -93 -158 -152 -263 -60 -104 -131 -228 -160
-275 -28 -47 -89 -152 -136 -235 -79 -140 -83 -151 -66 -163 10 -7 86 -58 168
-113 193 -128 299 -211 463 -362 228 -209 485 -515 628 -747 83 -135 69 -122
110 -103 29 14 34 21 29 40 -7 29 17 41 49 23 21 -11 37 -4 172 77 82 50 185
109 229 133 44 24 134 76 200 115 66 40 183 107 260 150 77 43 158 90 180 105
22 15 91 55 153 89 62 34 170 96 240 138 70 42 172 100 227 130 55 30 109 63
120 72 11 9 32 22 48 29 15 6 27 17 27 23 0 16 -155 271 -210 344 -25 33 -76
106 -115 162 -128 185 -332 429 -523 626 l-75 77 -666 -4 c-366 -2 -673 -4
-681 -4 -8 0 -118 2 -245 4 l-230 5 -44 -73z m1894 -44 c0 -10 -8 -20 -18 -22
-22 -4 -35 27 -16 39 20 12 34 5 34 -17z m141 -145 c8 -14 -21 -43 -35 -35 -6
4 -11 16 -11 27 0 21 34 27 46 8z m-1924 -128 c9 -12 81 -39 213 -80 110 -34
218 -68 239 -75 42 -13 60 -36 29 -36 -10 0 -120 30 -243 68 -187 56 -230 66
-253 58 -34 -12 -61 1 -65 33 -7 46 53 71 80 32z m2064 -22 c3 -6 -1 -18 -9
-27 -13 -12 -19 -13 -31 -3 -8 7 -12 19 -9 27 6 17 39 19 49 3z m-1451 -162
c8 -13 33 -30 55 -37 22 -7 47 -21 56 -31 13 -14 21 -16 36 -8 25 13 50 -6 46
-35 -4 -28 -42 -33 -60 -8 -7 10 -39 31 -71 45 -47 21 -63 24 -79 16 -46 -25
-100 27 -68 66 20 24 67 19 85 -8z m1573 -10 c4 -20 -25 -34 -40 -19 -15 15
-1 44 19 40 10 -2 19 -11 21 -21z m-1160 -63 c4 -30 -21 -48 -47 -34 -24 12
-27 30 -9 48 19 19 53 10 56 -14z m-124 -46 c8 -14 7 -21 -6 -34 -30 -30 -75
9 -48 42 16 18 39 15 54 -8z m121 -34 c11 -11 14 -25 10 -41 -4 -16 1 -33 15
-50 11 -14 20 -32 20 -39 0 -8 10 -14 23 -14 13 0 31 -8 41 -18 11 -13 49 -25
114 -37 53 -10 106 -22 116 -28 15 -7 23 -3 43 22 29 37 68 41 107 10 51 -40
22 -129 -42 -129 -16 0 -22 -4 -19 -14 3 -7 -3 -67 -12 -132 -18 -115 -18
-119 0 -132 11 -7 19 -22 19 -33 0 -12 10 -23 26 -29 14 -6 64 -38 110 -71 60
-44 90 -60 105 -56 58 15 91 -55 38 -83 -24 -13 -69 7 -69 31 0 27 -210 168
-242 162 -27 -5 -58 18 -58 43 0 8 9 23 20 34 12 12 18 25 14 31 -8 14 16 211
29 227 7 9 2 19 -17 37 -14 13 -26 31 -26 40 0 9 -9 15 -22 15 -13 0 -65 9
-117 20 -109 23 -141 17 -204 -37 -20 -18 -41 -33 -46 -33 -4 0 -6 -11 -4 -24
7 -34 -36 -63 -67 -46 -16 9 -20 19 -18 43 3 27 8 33 34 37 49 8 100 59 106
108 3 22 3 42 -1 44 -4 2 -17 18 -30 36 -12 17 -30 32 -40 32 -23 0 -41 19
-41 45 0 43 53 61 85 29z m796 -16 c8 -14 7 -28 -1 -47 -8 -21 -8 -33 5 -57 8
-16 17 -43 21 -59 3 -18 14 -35 27 -40 13 -6 23 -21 25 -35 3 -23 13 -29 90
-52 80 -25 88 -25 104 -11 39 35 93 -28 56 -65 -21 -21 -57 -14 -70 13 -6 14
-17 24 -24 21 -7 -3 -44 4 -81 16 -37 11 -81 20 -97 19 -50 -1 -84 47 -55 76
9 9 8 21 -5 47 -9 19 -19 48 -22 65 -4 20 -16 36 -33 44 -34 16 -40 59 -11 80
26 18 57 11 71 -15z m496 -4 c7 -18 -14 -35 -34 -27 -7 3 -13 14 -13 24 0 24
38 26 47 3z m-603 -53 c7 -11 -16 -30 -89 -74 -68 -40 -90 -47 -90 -29 0 6 36
34 80 61 87 53 91 55 99 42z m-1624 -83 c11 -12 21 -28 21 -35 1 -7 2 -18 3
-24 0 -6 17 -17 36 -23 19 -7 128 -46 243 -86 133 -47 207 -78 207 -86 0 -8
-3 -14 -6 -14 -9 0 -400 134 -451 155 -39 16 -44 16 -58 1 -17 -16 -71 -21
-91 -8 -17 11 -34 48 -34 73 0 60 88 92 130 47z m2338 -36 c3 -16 -2 -22 -17
-22 -24 0 -35 15 -27 36 9 23 40 13 44 -14z m-2890 -50 c3 -16 -2 -22 -17 -22
-24 0 -35 15 -27 36 9 23 40 13 44 -14z m177 -112 c0 -8 -10 -16 -22 -18 -18
-3 -23 2 -23 18 0 16 5 21 23 18 12 -2 22 -10 22 -18z m2830 -10 c0 -8 -10
-16 -22 -18 -18 -3 -23 2 -23 18 0 16 5 21 23 18 12 -2 22 -10 22 -18z m-1779
-26 l28 -27 47 27 c34 19 50 23 55 15 8 -13 -24 -41 -69 -61 -16 -8 -31 -26
-37 -44 -34 -103 -163 -93 -177 13 -5 37 -2 45 25 73 40 39 87 41 128 4z
m-888 -87 c4 -20 -25 -34 -40 -19 -15 15 -1 44 19 40 10 -2 19 -11 21 -21z
m155 -121 c8 -20 -20 -43 -35 -28 -14 14 -3 42 16 42 7 0 16 -6 19 -14z m155
-149 c4 -20 -25 -34 -40 -19 -15 15 -1 44 19 40 10 -2 19 -11 21 -21z m142
-147 c0 -24 -25 -33 -40 -14 -10 11 -10 17 0 28 15 19 40 10 40 -14z m127
-141 c16 -16 5 -39 -18 -39 -12 0 -19 7 -19 18 0 31 17 41 37 21z m133 -164
c15 -18 5 -35 -20 -35 -10 0 -22 5 -25 10 -7 11 12 40 25 40 4 0 13 -7 20 -15z
m117 -171 c3 -8 1 -20 -5 -26 -15 -15 -43 8 -35 28 7 19 32 18 40 -2z"/>
<path d="M10302 8391 c2 -5 46 -54 98 -108 52 -54 111 -118 132 -143 20 -25
57 -70 82 -100 88 -105 212 -266 281 -364 39 -54 81 -115 95 -135 14 -20 59
-91 100 -158 40 -67 83 -133 94 -147 l21 -25 100 59 c55 32 169 98 252 146 84
49 153 93 153 97 0 5 -15 32 -34 60 -18 29 -57 90 -86 137 -78 126 -139 218
-190 285 -25 33 -75 101 -110 150 -35 50 -95 127 -133 173 l-71 82 -242 0
c-206 0 -243 -2 -248 -15 -8 -22 10 -62 34 -75 31 -17 67 -4 122 42 77 64 71
33 -7 -38 -69 -63 -95 -77 -95 -51 0 8 -11 19 -24 25 -34 15 -59 57 -54 87 l5
25 -139 0 c-81 0 -138 -4 -136 -9z m592 -109 c25 -23 39 -63 27 -75 -6 -6 -15
3 -25 26 -10 25 -23 38 -41 43 -41 10 -48 -7 -26 -57 27 -58 27 -95 0 -109
-42 -23 -102 25 -115 90 -9 40 11 39 25 -2 15 -41 39 -68 63 -68 29 0 32 24 9
76 -25 56 -26 62 -4 86 19 22 56 17 87 -10z"/>
<path d="M11212 8323 c35 -43 94 -121 131 -173 37 -52 81 -112 97 -133 58 -76
308 -474 357 -567 27 -52 72 -135 100 -185 28 -49 62 -112 76 -140 l26 -50 1
168 c0 150 -2 172 -20 208 -34 67 -227 385 -285 472 -130 193 -234 338 -289
405 l-58 72 -99 0 -100 0 63 -77z"/>
<path d="M11457 8338 c27 -35 73 -99 103 -143 29 -44 73 -105 96 -135 24 -30
73 -104 110 -165 37 -60 103 -170 148 -243 l81 -133 3 147 c2 121 0 150 -13
164 -15 17 -11 50 6 50 5 0 9 114 9 260 l0 260 -296 0 -296 0 49 -62z"/>
<path d="M5795 7873 c-340 -13 -700 -72 -977 -159 -226 -72 -651 -256 -732
-318 -17 -14 -16 -19 34 -108 104 -184 162 -278 171 -278 5 0 44 18 87 39 466
236 830 336 1361 375 l156 11 0 220 c0 188 -2 220 -15 220 -8 1 -46 0 -85 -2z
m-528 -274 c35 -135 40 -173 21 -167 -13 5 -77 233 -78 276 0 14 5 22 12 20 7
-3 27 -60 45 -129z m-80 -24 c35 -131 40 -165 21 -165 -8 0 -26 50 -46 128
-19 70 -36 135 -39 145 -4 14 0 18 13 15 14 -2 26 -30 51 -123z m-107 93 c0
-7 -7 -42 -15 -77 -17 -70 -21 -60 48 -139 20 -23 37 -47 37 -52 0 -24 -31 -7
-66 35 -20 25 -40 43 -43 39 -3 -3 -13 -31 -21 -62 -8 -30 -21 -57 -27 -60
-18 -5 -16 27 4 103 l17 63 -52 51 c-46 46 -66 81 -45 81 4 0 29 -21 55 -47
l47 -46 10 25 c5 14 13 42 16 62 7 33 35 53 35 24z"/>
<path d="M5944 7871 c-2 -2 -4 -102 -4 -221 l0 -217 118 -7 c394 -22 794 -108
1087 -234 139 -60 311 -140 345 -161 19 -11 40 -21 47 -21 12 0 66 82 123 185
18 33 48 87 66 121 19 33 34 63 34 67 0 21 -290 163 -487 238 -291 111 -452
156 -711 199 -217 35 -602 67 -618 51z m908 -186 c5 -6 -56 -268 -67 -285 -13
-21 -26 3 -20 33 14 64 57 242 62 250 5 8 17 9 25 2z"/>
<path d="M47 7379 l-47 -90 0 -365 0 -364 56 -25 c33 -15 53 -29 49 -35 -4 -6
-12 -9 -19 -7 -6 3 -28 12 -48 21 l-38 16 0 -74 c0 -66 2 -75 20 -81 11 -3 20
-11 20 -16 0 -5 -9 -9 -20 -9 -20 0 -20 -6 -19 -342 l0 -343 20 75 c38 141 99
339 138 442 82 219 141 366 176 443 43 96 218 443 252 502 l25 42 -69 44 c-37
25 -104 63 -148 87 -44 23 -128 71 -186 106 -59 35 -109 64 -111 64 -2 0 -25
-41 -51 -91z m327 -481 c8 -14 7 -21 -6 -34 -30 -30 -75 9 -48 42 16 18 39 15
54 -8z"/>
<path d="M11715 7458 c-11 -6 -56 -32 -101 -59 -44 -26 -125 -72 -180 -102
-54 -30 -125 -71 -157 -91 l-58 -37 26 -42 c40 -65 217 -421 263 -527 159
-367 250 -639 345 -1030 81 -331 96 -420 140 -785 2 -16 5 205 6 493 1 458 -1
522 -14 522 -8 0 -15 5 -15 10 0 6 7 13 15 16 12 5 15 24 15 85 0 105 -24 158
-50 110 -16 -31 -12 -66 11 -95 22 -28 20 -42 -4 -33 -16 6 -47 67 -47 94 0
30 38 82 65 89 19 5 25 12 25 35 0 16 -2 29 -3 29 -2 0 -30 -9 -62 -20 -69
-24 -65 -24 -65 -5 0 8 -9 32 -20 52 -29 54 -27 123 4 160 24 29 82 53 125 53
21 0 21 1 21 293 0 291 0 292 -26 346 -24 52 -235 451 -238 451 0 0 -10 -6
-21 -12z"/>
<path d="M5765 7383 c-226 -10 -578 -67 -762 -124 -203 -62 -561 -212 -654
-274 l-39 -25 37 -68 c20 -37 76 -132 123 -212 48 -80 106 -181 130 -225 23
-44 75 -134 115 -200 64 -107 154 -262 279 -482 23 -40 45 -72 50 -73 6 0 48
20 95 44 170 87 393 147 633 169 l123 12 0 730 0 730 -30 1 c-16 0 -61 -1
-100 -3z m-540 -584 c49 -53 86 -123 106 -201 l11 -48 48 0 47 0 13 63 c15 79
63 180 97 207 61 48 100 -7 45 -61 -32 -31 -72 -132 -72 -181 0 -27 2 -28 54
-28 59 0 82 -16 71 -49 -7 -22 -60 -37 -95 -28 -30 8 -39 -12 -30 -70 12 -74
45 -142 91 -189 36 -36 39 -44 30 -63 -14 -25 -23 -26 -61 -6 -60 31 -113 131
-134 255 l-11 65 -42 3 c-41 3 -42 3 -48 -35 -22 -127 -75 -216 -165 -276 -34
-24 -67 -22 -75 4 -6 17 7 34 64 87 73 70 97 110 103 177 l3 40 -87 3 c-78 2
-89 5 -99 24 -10 18 -8 24 11 40 17 14 40 18 96 18 l74 0 -6 28 c-12 48 -63
136 -109 184 -49 53 -52 60 -30 81 22 22 49 10 100 -44z m-480 -199 c0 -20 -6
-26 -28 -28 -29 -4 -44 16 -33 44 4 10 15 14 33 12 22 -2 28 -8 28 -28z"/>
<path d="M5946 7382 c-4 -3 -6 -332 -6 -732 l0 -726 133 -12 c231 -21 445 -80
634 -175 45 -23 84 -39 86 -37 11 15 144 241 193 330 31 58 94 166 139 240 45
74 96 163 114 197 17 35 79 142 136 239 147 246 148 248 127 267 -35 31 -296
151 -486 223 -272 104 -616 170 -978 188 -48 2 -89 1 -92 -2z m448 -408 c19
-18 21 -65 4 -82 -39 -39 -112 12 -87 60 21 41 55 50 83 22z m94 -159 c16 -13
42 -49 58 -80 16 -30 32 -55 35 -55 4 0 12 13 19 29 17 43 55 92 87 113 45 29
89 24 129 -16 29 -29 34 -41 34 -83 0 -91 -63 -173 -99 -129 -10 12 -8 25 10
66 41 95 -7 145 -63 65 -57 -81 -71 -143 -77 -340 l-6 -180 -35 0 -35 0 -6
175 c-6 199 -17 256 -62 331 -38 65 -71 76 -88 32 -8 -23 -7 -38 11 -79 24
-60 19 -86 -19 -82 -37 4 -71 68 -71 137 0 47 4 57 34 87 44 44 99 47 144 9z"/>
<path d="M4005 7351 c-6 -5 -26 -17 -45 -28 -109 -57 -421 -292 -540 -405 -42
-40 -100 -95 -130 -123 -80 -73 -275 -295 -357 -405 -83 -112 -243 -349 -243
-360 0 -8 63 -47 243 -150 99 -57 132 -71 145 -64 8 6 41 52 72 104 57 93 73
115 221 306 83 107 294 318 453 453 54 46 172 133 263 193 l164 110 -16 24
c-8 13 -46 79 -84 146 -125 221 -124 220 -146 199z m-605 -656 c19 -20 67 -64
107 -98 40 -34 73 -65 73 -69 0 -5 -8 -8 -19 -8 -22 0 -211 175 -211 196 0 22
14 17 50 -21z m-55 -92 c30 -81 27 -78 90 -93 60 -14 95 -34 83 -46 -5 -4 -33
-2 -64 5 -30 7 -58 10 -61 8 -3 -3 2 -29 10 -58 15 -50 15 -69 -2 -69 -4 0
-17 31 -29 69 -12 38 -28 73 -35 79 -6 5 -36 15 -66 21 -30 6 -61 16 -68 22
-26 22 -2 27 58 13 34 -8 64 -13 66 -10 2 2 -5 27 -16 56 -11 29 -18 57 -15
62 12 19 28 -1 49 -59z"/>
<path d="M7793 7348 c-13 -17 -52 -86 -103 -183 -23 -44 -55 -99 -71 -122 -16
-23 -29 -48 -29 -55 0 -7 55 -49 123 -93 210 -137 391 -287 582 -484 162 -167
346 -406 425 -554 12 -21 27 -40 34 -43 8 -3 34 4 58 17 67 33 328 189 328
195 0 18 -123 205 -237 359 -254 343 -621 681 -1002 922 -92 58 -94 59 -108
41z m737 -656 c0 -5 -19 -26 -43 -48 -179 -164 -187 -171 -187 -141 0 18 192
196 213 197 9 0 17 -4 17 -8z m30 -104 c-19 -17 -66 -58 -104 -92 -67 -60 -96
-77 -96 -58 0 11 115 125 174 171 29 23 42 29 50 21 8 -8 1 -20 -24 -42z"/>
<path d="M599 7057 c-52 -92 -225 -445 -265 -539 -45 -107 -171 -449 -213
-578 -22 -69 -58 -200 -81 -291 -37 -152 -40 -177 -40 -301 l0 -135 25 5 c20
3 25 0 25 -16 0 -24 -23 -35 -39 -19 -8 8 -11 -11 -11 -74 0 -54 5 -90 12 -97
10 -10 10 -17 0 -32 -9 -15 -12 -123 -12 -425 l0 -405 1068 2 1067 3 7 161
c12 280 61 597 128 833 67 234 199 565 299 746 33 60 58 112 56 115 -2 4 -60
37 -127 75 -68 37 -174 99 -237 137 -62 38 -135 80 -162 94 -27 13 -122 68
-212 121 -89 53 -218 128 -287 166 -69 38 -147 84 -175 101 -27 18 -113 68
-190 111 -77 43 -196 112 -264 153 -68 41 -157 90 -197 109 -40 19 -78 41 -85
49 -24 29 -44 14 -90 -69z m48 -98 c16 -16 5 -39 -18 -39 -24 0 -37 29 -18 41
18 11 23 11 36 -2z m-98 -178 c17 -11 7 -41 -13 -41 -19 0 -29 17 -22 35 6 17
15 18 35 6z m-82 -192 c14 -14 6 -39 -12 -39 -18 0 -28 17 -21 35 6 18 18 19
33 4z m-79 -207 c3 -17 -2 -22 -18 -22 -25 0 -38 29 -19 41 20 13 34 6 37 -19z
m-78 -177 c10 -12 10 -18 0 -29 -14 -18 -40 -10 -40 13 0 32 20 40 40 16z
m872 -62 c22 -20 23 -46 2 -67 -18 -19 -65 -21 -82 -4 -15 15 -15 61 0 76 17
17 58 15 80 -5z m1022 -114 c29 -35 33 -67 11 -108 -39 -76 -160 -50 -172 36
-4 32 0 45 22 71 22 27 34 32 70 32 36 0 48 -5 69 -31z m-1956 -23 c6 -29 -15
-43 -35 -24 -14 14 -14 20 -3 33 16 19 34 15 38 -9z m1246 18 c20 -8 21 -48 1
-64 -30 -25 -61 30 -33 58 14 14 12 14 32 6z m1014 -37 c4 -20 -25 -34 -40
-19 -15 15 -1 44 19 40 10 -2 19 -11 21 -21z m-448 -186 c-32 -48 -60 -66 -60
-38 0 14 48 88 64 99 6 4 15 3 20 -2 5 -5 -6 -30 -24 -59z m-1875 3 c0 -10 -8
-20 -18 -22 -22 -4 -35 27 -16 39 20 12 34 5 34 -17z m2233 3 c4 -21 -25 -34
-40 -19 -8 8 -8 16 2 27 16 19 34 15 38 -8z m-424 -70 c25 -18 18 -68 -12 -83
-13 -6 -24 -15 -24 -20 -1 -12 -68 -171 -113 -269 -81 -176 -175 -403 -175
-423 0 -11 -8 -23 -17 -27 -10 -3 -38 -48 -63 -98 -47 -97 -60 -113 -72 -94
-4 6 15 54 43 107 27 53 49 104 49 113 0 9 8 22 18 29 10 7 46 81 81 163 68
163 119 278 187 424 26 56 41 98 35 104 -5 5 -24 4 -47 -2 -52 -14 -520 -92
-556 -93 -17 -1 -33 -9 -39 -20 -12 -22 -61 -24 -79 -3 -9 11 -35 15 -104 15
-50 0 -107 4 -128 9 -27 6 -40 5 -51 -6 -12 -12 -19 -13 -36 -4 -27 15 -27 37
0 51 16 9 24 8 37 -3 12 -10 50 -14 132 -16 63 -1 118 -5 122 -7 4 -3 21 5 37
17 23 17 32 19 50 10 11 -7 21 -16 21 -20 0 -5 12 -5 28 0 29 10 489 89 560
97 23 2 42 8 42 13 0 11 37 49 48 49 5 0 16 -6 26 -13z m-1369 -57 c0 -19 -6
-26 -24 -28 -31 -5 -41 8 -30 36 13 33 54 27 54 -8z m-65 -31 c0 -14 -128 -71
-141 -63 -15 9 0 21 67 53 58 28 74 30 74 10z m213 -5 c82 -26 99 -36 78 -48
-13 -9 -194 47 -199 62 -6 18 24 15 121 -14z m1561 -20 c8 -21 -1 -34 -25 -34
-12 0 -19 7 -19 18 0 34 33 45 44 16z m-2206 -22 c3 -16 -2 -22 -16 -22 -24 0
-35 23 -19 39 16 16 31 8 35 -17z m239 6 c29 -14 47 -59 38 -97 -13 -60 -92
-91 -142 -56 -33 23 -47 77 -29 113 30 58 69 70 133 40z m106 -206 c57 -58 66
-72 46 -72 -16 0 -129 103 -129 117 0 26 27 11 83 -45z m1787 18 c0 -13 -7
-20 -19 -20 -22 0 -35 15 -26 30 12 19 45 11 45 -10z m-2174 -29 c-9 -14 -33
-14 -41 -1 -4 6 -1 18 6 26 11 13 14 13 27 0 8 -8 11 -19 8 -25z m500 -107
c-4 -16 -2 -24 6 -24 7 -1 35 -29 61 -63 42 -54 53 -63 76 -59 40 6 73 -26 73
-70 0 -36 3 -38 97 -94 53 -32 141 -83 196 -114 177 -101 275 -163 275 -177 0
-23 -21 -14 -134 55 -61 38 -181 108 -266 157 -85 48 -162 94 -170 101 -10 9
-20 10 -30 4 -27 -17 -66 -11 -90 15 -19 20 -22 31 -16 66 6 38 4 46 -32 88
-21 25 -44 56 -51 69 -6 12 -18 22 -26 22 -24 0 -37 36 -19 54 23 24 58 3 50
-30z m1612 -57 c4 -20 -25 -34 -40 -19 -15 15 -1 44 19 40 10 -2 19 -11 21
-21z m-50 -200 c4 -20 -25 -34 -40 -19 -15 15 -1 44 19 40 10 -2 19 -11 21
-21z m-40 -200 c4 -20 -25 -34 -40 -19 -15 15 -1 44 19 40 10 -2 19 -11 21
-21z m-570 -143 c41 -47 25 -115 -34 -140 -61 -25 -124 16 -124 81 0 84 102
122 158 59z m537 -64 c0 -8 -10 -16 -22 -18 -18 -3 -23 2 -23 18 0 16 5 21 23
18 12 -2 22 -10 22 -18z m-27 -208 c3 -16 -2 -22 -16 -22 -24 0 -35 23 -19 39
16 16 31 8 35 -17z m-5 -196 c7 -17 -18 -40 -33 -31 -5 3 -10 15 -10 26 0 23
35 27 43 5z"/>
<path d="M10980 7034 c-102 -58 -237 -135 -300 -171 -63 -36 -189 -109 -280
-162 -91 -54 -217 -127 -280 -163 -121 -69 -299 -172 -472 -273 -132 -77 -200
-116 -331 -190 -59 -33 -107 -65 -107 -72 0 -7 25 -56 55 -109 140 -250 294
-679 353 -984 38 -196 51 -294 71 -550 l16 -205 36 -3 c23 -2 40 2 49 12 16
20 34 20 50 1 11 -13 134 -15 1029 -13 l1016 3 -3 28 c-3 25 -1 28 20 25 19
-2 22 -8 20 -31 -3 -26 -1 -28 30 -25 l33 3 -3 155 c-7 376 -53 733 -147 1155
-80 358 -123 499 -265 870 -112 292 -363 805 -395 805 -6 0 -94 -48 -195 -106z
m243 -66 c7 -21 -4 -38 -23 -38 -23 0 -34 16 -26 35 7 18 43 20 49 3z m87
-183 c13 -16 6 -35 -15 -35 -18 0 -28 17 -21 35 7 19 20 19 36 0z m88 -198 c4
-20 -25 -34 -40 -19 -15 15 -1 44 19 40 10 -2 19 -11 21 -21z m-717 -176 c22
-23 29 -39 29 -70 0 -31 4 -41 20 -46 20 -6 22 -12 24 -70 1 -21 7 -31 21 -33
31 -6 45 -22 45 -51 0 -16 19 -48 50 -86 28 -33 50 -63 50 -67 0 -5 10 -8 23
-8 30 0 47 -18 47 -50 0 -14 -5 -31 -12 -38 -8 -8 -9 -12 -1 -12 6 0 18 -21
27 -47 12 -39 94 -320 112 -385 6 -21 -24 -26 -30 -5 -2 6 -25 84 -51 172 -74
254 -77 263 -102 270 -30 7 -47 39 -34 64 8 14 6 23 -10 37 -11 10 -36 40 -56
66 -24 33 -42 48 -58 48 -31 0 -49 24 -42 58 5 26 3 30 -31 38 -25 6 -41 18
-50 37 -10 21 -20 27 -44 27 -20 0 -39 9 -57 29 -18 19 -32 26 -42 21 -17 -9
-320 -100 -334 -100 -6 0 -15 -10 -20 -22 -11 -26 -49 -35 -71 -18 -7 7 -14
25 -14 41 0 40 38 59 72 37 14 -9 29 -12 38 -7 23 11 165 54 250 74 41 10 81
19 88 21 6 2 12 14 12 26 1 72 97 103 151 49z m802 -3 c6 -19 -3 -38 -18 -38
-18 0 -28 17 -21 35 7 18 33 20 39 3z m75 -201 c4 -20 -25 -34 -40 -19 -15 15
-1 44 19 40 10 -2 19 -11 21 -21z m-1468 -71 c0 -16 -40 -109 -50 -116 -17
-12 -2 -99 28 -161 18 -36 32 -70 32 -75 0 -5 10 -14 23 -19 18 -8 22 -18 23
-55 1 -31 19 -88 58 -179 31 -73 56 -138 56 -145 0 -6 14 -17 30 -23 24 -9 30
-17 30 -40 0 -38 -36 -61 -69 -43 -18 9 -21 19 -20 53 2 60 -107 337 -133 337
-27 0 -44 44 -30 75 9 20 9 30 -2 48 -8 12 -24 47 -37 77 -12 30 -31 64 -41
76 -24 28 -23 42 7 56 14 6 25 20 25 30 0 25 48 118 60 118 6 0 10 -6 10 -14z
m1530 -111 c15 -17 5 -35 -20 -35 -22 0 -33 23 -17 39 15 15 22 14 37 -4z
m-2230 -84 c0 -26 -17 -36 -35 -21 -18 15 -8 40 16 40 12 0 19 -7 19 -19z
m2295 -126 c0 -13 -8 -21 -22 -23 -17 -3 -23 2 -23 16 0 10 3 22 7 26 13 13
38 1 38 -19z m-2207 -58 c4 -20 -25 -34 -40 -19 -15 15 -1 44 19 40 10 -2 19
-11 21 -21z m2261 -131 c17 -20 -13 -43 -34 -26 -12 10 -13 16 -4 26 6 8 15
14 19 14 4 0 13 -6 19 -14z m-2171 -59 c4 -22 -24 -33 -43 -17 -12 10 -13 16
-4 27 16 18 43 13 47 -10z m2217 -153 c0 -10 -8 -20 -18 -22 -22 -4 -35 27
-16 39 20 12 34 5 34 -17z m-619 -25 c15 -17 16 -23 6 -40 -12 -19 -10 -31 44
-198 7 -24 11 -47 9 -52 -3 -4 5 -13 17 -20 29 -15 38 -28 38 -56 0 -44 -61
-57 -86 -18 -15 23 -15 27 -1 49 15 22 14 28 -3 74 -11 28 -27 80 -36 116 -13
53 -22 69 -43 79 -46 22 -36 87 14 87 12 0 30 -9 41 -21z m-1536 -20 c0 -25
-33 -22 -38 4 -2 12 3 17 17 17 15 0 21 -6 21 -21z m700 -140 c0 -13 93 -239
130 -317 17 -34 30 -69 30 -77 0 -18 -26 -20 -33 -2 -135 319 -169 406 -161
419 6 10 34 -9 34 -23z m1498 -12 c4 -20 -25 -34 -40 -19 -15 15 -1 44 19 40
10 -2 19 -11 21 -21z m-2140 -45 c3 -16 -2 -22 -16 -22 -24 0 -35 23 -19 39
16 16 31 8 35 -17z m2170 -158 c4 -25 -22 -38 -37 -20 -15 18 -3 48 18 44 9
-2 17 -13 19 -24z m-415 -83 c42 -23 77 -49 77 -57 0 -8 -3 -14 -6 -14 -12 0
-206 103 -220 118 -25 25 5 34 41 13 16 -10 65 -37 108 -60z m-1706 58 c16
-16 5 -39 -17 -39 -23 0 -32 13 -24 34 7 19 25 21 41 5z m1453 -13 c0 -15
-122 -126 -139 -126 -22 0 -10 18 53 78 64 62 86 74 86 48z m424 -112 c9 -8
16 -19 16 -22 0 -17 -32 -52 -47 -52 -22 0 -53 29 -53 50 0 38 54 54 84 24z
m-576 -40 c4 -29 -23 -51 -43 -34 -8 7 -15 21 -15 30 0 35 53 38 58 4z m-1083
-29 c0 -25 -4 -30 -25 -30 -16 0 -26 6 -28 18 -6 30 6 49 30 45 18 -2 23 -9
23 -33z m1929 26 c10 -16 -6 -42 -23 -39 -9 2 -17 13 -19 26 -3 16 2 22 17 22
11 0 22 -4 25 -9z m-1287 -16 c13 -9 28 -33 34 -54 29 -98 -87 -160 -157 -84
-71 76 38 198 123 138z m361 -7 c-3 -7 -18 -15 -34 -19 -16 -4 -72 -18 -126
-33 -102 -28 -138 -32 -138 -17 0 15 11 20 127 51 118 31 177 38 171 18z
m-1181 -9 c16 -16 5 -39 -17 -39 -23 0 -34 16 -26 35 6 18 28 19 43 4z m2122
-168 c17 -11 7 -41 -13 -41 -19 0 -29 17 -22 35 6 17 15 18 35 6z m-1409 -21
c0 -14 -139 -178 -156 -184 -30 -12 -11 30 43 93 80 94 113 120 113 91z m-682
-28 c3 -16 -2 -22 -17 -22 -26 0 -36 17 -20 36 16 19 33 13 37 -14z m1300 -64
c7 -7 12 -24 12 -38 0 -34 -17 -50 -52 -50 -37 0 -57 38 -40 75 13 27 58 35
80 13z m-797 -109 c26 -26 21 -49 -13 -68 -24 -14 -28 -14 -47 3 -25 23 -27
43 -4 68 21 23 38 23 64 -3z m1607 -2 c4 -20 -25 -34 -40 -19 -15 15 -1 44 19
40 10 -2 19 -11 21 -21z m-2093 -31 c0 -22 -14 -29 -34 -17 -19 12 -6 43 16
39 10 -2 18 -12 18 -22z"/>
<path d="M4104 6831 c-82 -55 -207 -149 -279 -209 -130 -109 -344 -322 -400
-397 -17 -22 -62 -80 -101 -130 -75 -96 -204 -291 -204 -309 0 -16 50 -46 408
-248 19 -10 77 -45 130 -77 53 -32 115 -68 138 -79 22 -11 110 -62 195 -113
191 -114 364 -209 381 -209 7 0 24 17 37 37 39 60 161 215 210 267 78 82 246
222 315 263 36 21 66 42 66 47 0 4 -29 56 -64 115 -35 58 -83 142 -106 186
-24 44 -68 121 -98 170 -31 50 -95 160 -142 245 -48 85 -108 189 -132 230 -25
41 -74 127 -110 190 -36 63 -72 116 -80 118 -9 2 -83 -42 -164 -97z m410 -663
c14 -24 30 -225 20 -253 -7 -18 -45 -20 -62 -3 -7 7 -12 42 -12 86 0 54 -3 73
-12 70 -7 -3 -41 -38 -75 -78 -98 -117 -127 -114 -160 19 l-19 75 -73 -88
c-41 -48 -82 -91 -92 -97 -41 -22 -65 14 -93 144 -4 15 -11 27 -16 27 -5 0
-28 -25 -52 -56 -85 -111 -99 -125 -127 -122 -46 5 -38 39 25 115 82 98 159
173 177 173 26 0 54 -46 66 -110 7 -33 16 -60 21 -60 4 0 28 24 51 53 70 85
106 117 132 117 33 0 42 -14 62 -90 9 -36 18 -66 20 -68 2 -2 25 21 51 50 115
125 140 140 168 96z m-30 -334 c9 -3 25 -34 35 -68 11 -33 29 -87 41 -119 23
-64 17 -87 -22 -87 -14 0 -27 17 -49 65 -16 35 -29 71 -29 80 0 30 -26 12 -80
-55 -63 -78 -93 -99 -118 -84 -9 6 -33 42 -54 80 -20 38 -41 70 -46 72 -5 1
-39 -31 -76 -73 -38 -41 -79 -78 -92 -81 -34 -9 -69 25 -93 90 -10 28 -23 51
-29 51 -6 0 -41 -35 -77 -77 -65 -76 -77 -84 -109 -72 -31 12 -15 41 80 153
117 138 123 139 175 31 21 -41 43 -75 50 -75 7 0 42 34 78 75 35 41 71 79 79
83 31 19 57 -2 92 -73 19 -39 40 -76 46 -81 9 -7 24 6 55 48 83 112 106 131
143 117z"/>
<path d="M7512 6863 c-22 -38 -50 -88 -62 -113 -13 -25 -48 -85 -78 -135 -30
-49 -102 -173 -160 -275 -57 -102 -119 -208 -137 -236 -18 -29 -50 -85 -71
-125 -21 -41 -69 -125 -106 -187 -38 -62 -66 -117 -63 -122 3 -4 26 -21 53
-36 133 -77 334 -267 461 -435 50 -66 91 -124 91 -129 0 -6 7 -10 16 -10 16 0
216 102 243 124 21 17 194 119 311 182 58 32 143 81 190 109 47 29 155 92 240
140 217 123 270 156 270 170 0 20 -119 205 -191 295 -37 47 -85 110 -108 140
-53 71 -287 307 -371 375 -36 28 -90 73 -120 99 -93 80 -330 236 -358 236 -6
0 -28 -30 -50 -67z m23 -563 c0 -18 -6 -26 -23 -28 -24 -4 -38 18 -28 44 3 9
15 14 28 12 17 -2 23 -10 23 -28z m36 -128 c52 -24 112 -81 129 -123 7 -16 16
-28 21 -27 4 2 22 25 41 53 43 65 112 107 183 113 46 4 56 1 61 -13 11 -29 -8
-47 -66 -62 -31 -8 -67 -26 -83 -41 -27 -25 -67 -91 -67 -110 0 -4 20 -22 45
-40 59 -42 85 -94 85 -174 0 -117 -75 -198 -190 -206 -165 -12 -274 121 -230
279 12 41 67 101 116 124 41 19 42 37 6 90 -27 39 -82 73 -147 92 -21 6 -31
16 -33 32 -7 46 45 51 129 13z"/>
<path d="M7640 5871 c-51 -27 -73 -63 -74 -118 -2 -112 114 -178 215 -121 92
52 90 181 -3 238 -41 25 -93 25 -138 1z"/>
<path d="M11891 6324 c-38 -31 -48 -78 -28 -127 20 -48 43 -58 95 -45 l42 10
0 94 0 94 -39 0 c-28 0 -49 -8 -70 -26z"/>
<path d="M2641 5937 c-198 -353 -351 -791 -416 -1191 -28 -173 -48 -408 -43
-516 l3 -75 220 0 220 0 6 155 c11 256 63 564 131 780 48 151 164 435 229 559
33 63 58 115 57 116 -8 8 -372 215 -377 215 -3 0 -17 -19 -30 -43z m-21 -812
c78 6 83 5 66 -9 -11 -9 -34 -16 -50 -16 -58 0 -63 -14 -23 -61 36 -41 47 -69
28 -69 -6 0 -33 25 -62 56 l-53 55 -79 -7 c-66 -6 -79 -4 -75 7 3 8 25 17 51
21 69 9 72 15 32 59 -19 21 -35 43 -35 47 0 28 21 17 65 -33 l50 -56 85 6z"/>
<path d="M9065 5928 c-233 -134 -275 -159 -275 -170 0 -6 21 -49 47 -96 25
-47 61 -122 79 -166 29 -74 34 -81 61 -81 56 -1 70 -30 29 -62 l-24 -18 44
-118 c90 -240 143 -506 173 -857 l17 -205 209 -3 c169 -2 212 0 220 11 15 21
0 320 -25 500 -52 379 -177 779 -350 1121 -52 104 -100 191 -105 192 -6 2 -50
-20 -100 -48z m363 -780 c-5 -14 -266 -81 -280 -72 -20 13 14 28 124 55 128
31 162 35 156 17z m22 -81 c0 -18 -268 -93 -282 -79 -15 15 5 24 127 59 123
35 155 39 155 20z m30 -87 c0 -16 -33 -28 -160 -59 -66 -17 -119 -25 -124 -20
-16 14 -2 20 121 55 126 35 163 40 163 24z"/>
<path d="M5745 5871 c-33 -3 -65 -9 -71 -13 -8 -5 -7 -35 4 -105 22 -145 18
-139 93 -133 l64 5 3 40 c4 61 -12 208 -23 210 -5 1 -37 -1 -70 -4z"/>
<path d="M5860 5832 c0 -27 3 -83 6 -125 l7 -75 64 -4 c50 -2 67 0 73 12 4 8
9 65 11 125 l4 110 -82 3 -83 3 0 -49z"/>
<path d="M6057 5844 c-3 -16 -7 -72 -9 -124 l-3 -95 57 -9 c32 -4 64 -6 71 -3
16 6 62 226 50 238 -4 4 -42 11 -84 15 l-77 7 -5 -29z"/>
<path d="M5550 5843 c-36 -8 -68 -18 -72 -22 -7 -6 42 -207 56 -229 5 -8 122
10 133 21 8 8 -29 221 -41 233 -8 8 -28 8 -76 -3z"/>
<path d="M6257 5833 c-10 -15 -41 -222 -35 -228 3 -4 30 -13 59 -20 42 -11 56
-12 66 -2 10 10 73 199 73 218 0 8 -109 39 -138 39 -11 0 -23 -3 -25 -7z"/>
<path d="M5351 5790 c-30 -11 -58 -23 -63 -28 -8 -8 62 -206 79 -223 15 -15
133 30 133 49 -1 10 -13 62 -29 117 -32 114 -35 116 -120 85z"/>
<path d="M6452 5786 c-17 -22 -73 -219 -65 -226 4 -5 31 -17 60 -28 39 -15 55
-17 62 -8 19 23 92 198 88 210 -8 20 -135 66 -145 52z"/>
<path d="M3032 5633 c-94 -168 -228 -523 -281 -744 -50 -209 -85 -495 -79
-649 l3 -85 725 0 725 0 8 105 c16 219 80 457 171 638 25 51 46 98 46 106 0 8
-51 43 -117 79 -65 36 -176 100 -248 143 -71 42 -173 101 -225 129 -52 29
-171 97 -265 152 -93 55 -216 126 -273 158 -56 31 -105 61 -108 66 -12 20 -25
4 -82 -98z m488 -562 c32 -30 39 -46 49 -102 6 -36 11 -107 11 -157 0 -51 4
-94 10 -97 6 -4 26 3 45 15 38 23 102 28 146 12 118 -46 74 -252 -60 -278 -41
-8 -73 1 -110 32 -36 30 -46 26 -67 -27 -22 -54 -76 -99 -119 -99 -18 0 -37 5
-40 10 -11 18 4 45 32 56 21 8 38 31 71 97 39 82 41 90 32 132 -5 24 -12 90
-16 147 -8 140 -21 206 -44 218 -34 18 -58 11 -87 -27 -32 -41 -35 -88 -14
-185 6 -31 11 -92 9 -135 l-3 -78 -30 0 -30 0 -7 95 c-8 114 -45 239 -89 299
-34 48 -36 84 -2 89 14 2 31 -7 49 -27 15 -17 31 -31 36 -31 4 0 22 16 41 36
56 62 126 64 187 5z m589 -235 c14 -16 5 -42 -16 -50 -17 -7 -43 10 -43 28 0
7 5 17 12 24 16 16 33 15 47 -2z"/>
<path d="M3663 4661 c-40 -25 -49 -53 -27 -86 32 -49 92 -45 125 8 24 40 24
59 1 80 -24 22 -60 21 -99 -2z"/>
<path d="M5163 5708 c-35 -18 -63 -36 -63 -40 0 -6 64 -124 108 -198 8 -13 18
-11 71 14 33 16 61 32 61 34 0 3 -19 54 -42 114 -29 76 -46 108 -57 108 -9 0
-44 -15 -78 -32z"/>
<path d="M8670 5699 c-36 -22 -91 -53 -123 -70 -31 -16 -139 -78 -240 -138
-100 -60 -218 -128 -262 -151 -44 -23 -91 -51 -105 -60 -30 -21 -156 -95 -330
-192 -69 -39 -127 -72 -129 -74 -2 -2 23 -63 56 -136 102 -224 148 -400 161
-612 l7 -111 730 0 730 0 -3 105 c-9 396 -94 768 -269 1185 -38 90 -138 281
-151 289 -4 2 -36 -14 -72 -35z m-122 -465 c28 -20 30 -69 3 -84 -28 -14 -52
-12 -73 7 -24 21 -23 48 2 73 24 24 38 25 68 4z m-407 -240 c58 -36 104 -52
181 -63 112 -15 223 14 277 73 28 30 56 34 70 8 18 -34 -55 -111 -123 -128
-35 -8 -37 -23 -34 -194 l3 -145 63 -31 c101 -51 134 -93 97 -124 -12 -10 -24
-6 -65 20 -140 90 -315 93 -480 10 -59 -30 -90 -27 -90 9 0 26 26 46 113 86
l77 36 0 158 0 159 -77 37 c-109 51 -134 80 -101 113 14 14 40 7 89 -24z"/>
<path d="M8310 4710 l0 -150 65 0 66 0 -3 148 -3 147 -62 3 -63 3 0 -151z"/>
<path d="M6587 5619 c-26 -55 -47 -107 -47 -115 0 -21 116 -77 127 -61 17 22
113 193 113 201 0 7 -124 76 -137 76 -5 0 -31 -45 -56 -101z"/>
<path d="M4992 5613 c-37 -20 -61 -41 -58 -48 7 -18 126 -184 138 -191 5 -3
17 1 27 10 10 9 22 16 27 16 5 0 21 10 36 23 l28 22 -58 103 c-31 56 -61 102
-67 102 -5 -1 -38 -17 -73 -37z"/>
<path d="M6787 5593 c-29 -46 -91 -165 -92 -175 0 -4 23 -23 50 -43 l50 -36
43 48 c23 26 59 72 80 101 l36 54 -24 18 c-14 11 -46 31 -72 45 l-47 26 -24
-38z"/>
<path d="M5750 5580 c-203 -30 -309 -63 -497 -159 -208 -106 -378 -252 -517
-446 -131 -181 -202 -353 -253 -610 -22 -112 -22 -352 1 -470 62 -325 191
-571 416 -795 129 -128 201 -180 372 -268 204 -105 399 -151 640 -152 244 0
435 44 642 149 172 87 250 144 381 275 173 174 258 305 337 515 108 292 126
564 56 846 -87 353 -271 629 -568 852 -137 103 -403 217 -577 248 -108 19
-345 27 -433 15z m118 -384 c-4 -25 -43 -34 -51 -12 -4 9 1 22 9 30 20 20 46
9 42 -18z m171 10 c9 -11 8 -18 -5 -31 -15 -15 -19 -15 -32 -1 -17 17 -10 46
11 46 8 0 20 -6 26 -14z m-344 -35 c0 -30 -18 -37 -39 -15 -13 13 -14 19 -5
30 18 22 44 13 44 -15z m518 5 c8 -20 -8 -38 -29 -34 -22 4 -31 37 -13 48 15
10 36 3 42 -14z m-684 -35 c19 -12 6 -41 -19 -41 -13 0 -20 7 -20 18 0 31 14
39 39 23z m836 -31 c0 -29 -32 -41 -41 -16 -9 24 4 48 23 44 12 -2 18 -12 18
-28z m-220 -59 c99 -25 258 -103 346 -170 105 -79 199 -191 258 -307 149 -295
135 -655 -35 -936 -49 -81 -183 -219 -262 -272 -179 -118 -296 -156 -502 -163
-133 -5 -154 -3 -248 21 -290 73 -540 283 -641 536 -59 148 -75 232 -75 380 0
117 4 148 29 235 52 185 110 287 239 424 133 139 337 241 551 275 64 10 262
-4 340 -23z m-762 7 c7 -21 -4 -38 -23 -38 -23 0 -34 16 -26 35 7 18 43 20 49
3z m1132 -28 c0 -31 -31 -39 -40 -11 -8 26 2 43 23 39 11 -2 17 -13 17 -28z
m-1267 -88 c4 -28 -24 -41 -44 -20 -20 20 -7 50 20 46 13 -2 22 -12 24 -26z
m1407 -21 c0 -30 -15 -36 -40 -17 -17 12 -17 16 -6 30 20 24 46 16 46 -13z
m-1536 -84 c8 -10 7 -19 -4 -33 -13 -18 -15 -18 -31 -2 -18 18 -13 48 9 48 8
0 20 -6 26 -13z m1651 -23 c11 -12 10 -18 -3 -32 -16 -15 -18 -15 -34 0 -13
14 -14 20 -3 32 7 9 16 16 20 16 4 0 13 -7 20 -16z m-1756 -110 c21 -8 21 -43
0 -51 -8 -3 -23 1 -31 10 -13 13 -14 19 -3 31 14 18 13 18 34 10z m1856 -49
c0 -20 -5 -25 -25 -25 -20 0 -25 5 -25 25 0 20 5 25 25 25 20 0 25 -5 25 -25z
m-1932 -104 c19 -12 11 -45 -12 -49 -24 -5 -37 17 -25 40 11 20 18 22 37 9z
m2002 -36 c18 -21 5 -47 -22 -43 -26 3 -37 36 -16 49 18 12 24 11 38 -6z
m-2045 -150 c0 -13 -8 -21 -22 -23 -17 -3 -23 2 -23 16 0 10 3 22 7 26 13 13
38 1 38 -19z m2093 -28 c4 -20 -25 -34 -40 -19 -15 15 -1 44 19 40 10 -2 19
-11 21 -21z m-2114 -134 c8 -19 -17 -48 -33 -39 -12 8 -15 39 -4 49 12 12 31
7 37 -10z m2126 -29 c11 -12 11 -18 -2 -31 -19 -18 -38 -10 -38 16 0 33 20 40
40 15z m-2125 -154 c0 -16 -6 -26 -18 -28 -19 -4 -32 20 -23 44 9 25 41 13 41
-16z m2120 -30 c0 -16 -6 -26 -18 -28 -19 -4 -32 20 -23 44 9 25 41 13 41 -16z
m-2089 -125 c10 -25 -3 -44 -25 -38 -20 5 -28 32 -14 46 11 12 33 7 39 -8z
m2057 -27 c7 -23 -4 -38 -29 -38 -17 0 -24 6 -24 18 0 10 3 22 7 25 11 12 41
8 46 -5z m-1994 -132 c17 -20 2 -48 -23 -44 -24 3 -34 37 -14 49 18 12 24 11
37 -5z m1929 -42 c2 -12 -4 -24 -12 -27 -20 -8 -47 19 -39 39 8 22 47 13 51
-12z m-1840 -122 c4 -28 -24 -40 -45 -19 -14 13 -14 19 -3 32 18 22 44 15 48
-13z m1748 -17 c8 -20 -13 -45 -32 -38 -8 3 -14 16 -14 29 0 17 6 24 20 24 11
0 23 -7 26 -15z m-1646 -120 c0 -18 -5 -25 -19 -25 -11 0 -23 5 -26 10 -11 18
3 40 25 40 15 0 20 -7 20 -25z m1540 -20 c0 -18 -5 -25 -19 -25 -11 0 -23 5
-26 10 -11 18 3 40 25 40 15 0 20 -7 20 -25z m-1415 -95 c0 -29 -32 -41 -41
-16 -9 24 4 48 23 44 12 -2 18 -12 18 -28z m1280 -20 c0 -29 -32 -41 -41 -16
-9 24 4 48 23 44 12 -2 18 -12 18 -28z m-1132 -62 c7 -21 -4 -38 -23 -38 -23
0 -34 16 -26 35 7 18 43 20 49 3z m987 -14 c11 -12 11 -18 -2 -30 -18 -18 -48
-8 -48 15 0 33 28 42 50 15z m-834 -79 c-3 -9 -14 -15 -23 -13 -22 4 -30 38
-11 49 18 11 43 -15 34 -36z m673 21 c15 -18 3 -46 -19 -46 -10 0 -21 7 -24
16 -6 16 9 44 24 44 4 0 13 -6 19 -14z m-502 -42 c4 -11 -1 -22 -13 -31 -16
-12 -20 -12 -31 3 -6 9 -9 22 -6 30 7 19 42 18 50 -2z m341 -12 c4 -28 -24
-40 -45 -19 -14 13 -14 19 -3 32 18 22 44 15 48 -13z m-173 -12 c0 -18 -6 -26
-23 -28 -27 -4 -40 22 -22 44 19 22 45 13 45 -16z"/>
<path d="M5753 5029 c-38 -11 -139 -132 -184 -221 -185 -367 -127 -795 149
-1090 102 -108 281 -216 432 -258 49 -14 118 -23 201 -27 148 -7 148 -7 246
110 92 109 122 159 159 262 52 147 68 241 61 375 -12 256 -114 468 -310 645
-79 72 -268 167 -387 195 -92 21 -305 27 -367 9z m237 -265 c0 -40 2 -45 19
-39 14 4 19 1 17 -12 -1 -13 7 -19 29 -21 42 -5 57 -22 19 -22 -43 0 -84 -37
-84 -77 0 -18 -4 -35 -10 -38 -6 -4 -10 12 -10 40 0 42 -2 46 -21 40 -16 -5
-20 -3 -17 12 2 15 -5 19 -40 21 -49 4 -47 22 2 22 39 0 50 8 34 27 -6 7 -7
17 -3 21 4 4 10 1 12 -5 3 -7 11 -13 19 -13 10 0 14 14 14 51 0 31 4 48 10 44
6 -3 10 -26 10 -51z m470 -250 c0 -40 2 -45 19 -39 16 5 18 2 14 -15 -5 -17
-1 -20 30 -20 20 0 39 -4 42 -10 4 -6 -7 -10 -26 -10 -45 0 -79 -35 -79 -82 0
-52 -18 -48 -22 5 -2 33 -7 42 -21 41 -11 -1 -16 4 -15 15 2 12 -6 17 -35 19
-46 4 -39 22 9 22 31 0 34 2 24 19 -14 27 -13 36 5 21 22 -18 35 -3 35 41 0
21 5 39 10 39 6 0 10 -21 10 -46z m-330 -160 c0 -42 1 -44 21 -33 19 10 20 8
14 -10 -5 -17 -2 -21 17 -21 13 0 34 -3 46 -7 32 -8 9 -23 -36 -23 -29 0 -33
-3 -27 -21 6 -18 4 -20 -14 -14 -19 6 -21 2 -21 -34 0 -56 -17 -60 -26 -6 -6
41 -9 45 -28 39 -17 -5 -19 -4 -8 7 18 19 15 29 -10 29 -13 0 -34 3 -46 7 -29
7 -10 23 29 23 33 0 42 9 26 28 -10 13 -9 14 9 8 19 -6 22 -2 28 39 9 57 26
49 26 -11z"/>
<path d="M4838 5507 c-29 -24 -53 -50 -53 -59 0 -15 128 -169 146 -176 11 -4
109 68 109 80 0 13 -133 198 -142 198 -4 0 -31 -19 -60 -43z"/>
<path d="M6924 5448 c-26 -35 -58 -75 -72 -90 -28 -31 -27 -33 37 -87 l48 -40
83 90 83 90 -54 49 c-30 27 -59 49 -66 50 -6 0 -33 -28 -59 -62z"/>
<path d="M4680 5365 c-33 -34 -50 -58 -45 -64 117 -106 170 -151 180 -151 7 0
31 21 54 46 37 40 40 48 28 63 -74 88 -142 161 -151 161 -7 0 -36 -25 -66 -55z"/>
<path d="M7074 5337 c-22 -23 -57 -61 -78 -85 l-37 -43 41 -50 c23 -27 45 -49
50 -49 10 0 150 111 174 139 19 21 19 21 0 44 -49 59 -79 87 -93 87 -9 -1 -34
-20 -57 -43z"/>
<path d="M4555 5223 c-25 -32 -44 -62 -42 -68 2 -5 46 -40 97 -78 l94 -68 29
33 c64 75 64 77 31 107 -16 14 -57 50 -89 78 -33 29 -63 53 -67 53 -4 0 -28
-26 -53 -57z"/>
<path d="M7227 5212 c-15 -15 -54 -48 -87 -73 -32 -24 -59 -50 -60 -56 0 -10
50 -84 75 -111 4 -5 199 129 203 138 3 7 -94 130 -101 130 -2 0 -15 -13 -30
-28z"/>
<path d="M4437 5063 c-21 -31 -36 -64 -35 -72 2 -9 48 -39 103 -68 113 -59
111 -59 155 21 24 45 24 46 5 61 -68 52 -165 115 -177 115 -8 0 -31 -26 -51
-57z"/>
<path d="M7277 5013 c-53 -36 -97 -70 -97 -74 0 -14 61 -109 70 -109 19 0 202
93 207 105 5 14 -63 145 -76 145 -4 0 -51 -30 -104 -67z"/>
<path d="M4347 4895 c-40 -83 -38 -88 46 -123 39 -17 89 -38 110 -47 l37 -15
25 56 c14 31 25 63 25 70 0 12 -186 114 -208 114 -4 0 -20 -25 -35 -55z"/>
<path d="M7362 4850 c-115 -55 -110 -46 -71 -137 10 -24 24 -43 31 -43 32 1
213 78 216 92 4 19 -49 130 -63 134 -5 1 -56 -19 -113 -46z"/>
<path d="M4295 4770 c-12 -19 -45 -123 -45 -142 0 -10 7 -18 18 -18 9 0 53
-11 97 -25 115 -36 116 -36 142 36 l22 60 -47 21 c-26 11 -75 33 -110 49 -71
33 -69 32 -77 19z"/>
<path d="M7493 4700 c-24 -10 -68 -27 -99 -37 -31 -9 -58 -23 -61 -29 -2 -6 3
-37 12 -68 12 -40 21 -56 34 -56 18 0 210 48 223 56 6 4 -8 59 -34 127 -12 32
-19 33 -75 7z"/>
<path d="M4216 4532 c-25 -90 -22 -109 17 -115 119 -21 188 -29 200 -24 12 5
44 124 35 132 -4 4 -218 65 -228 65 -4 0 -15 -26 -24 -58z"/>
<path d="M7477 4502 l-99 -27 7 -54 c10 -83 11 -84 64 -77 25 4 75 9 111 13
71 6 93 17 86 42 -3 9 -10 42 -16 74 -14 68 -10 67 -153 29z"/>
<path d="M4187 4383 c-3 -5 -6 -42 -8 -83 l-4 -75 115 -6 c65 -3 120 -1 128 4
7 6 12 34 12 73 l0 63 -32 6 c-156 26 -204 30 -211 18z"/>
<path d="M7517 4325 c-54 -7 -102 -16 -107 -21 -4 -5 -5 -38 -1 -74 l6 -65 40
-3 c22 -2 77 -1 123 3 l82 7 0 72 c0 69 -10 98 -34 95 -6 -1 -55 -7 -109 -14z"/>
<path d="M4170 4109 l0 -82 117 8 c65 3 121 9 125 11 5 3 8 34 8 69 0 48 -4
64 -16 69 -9 3 -65 6 -125 6 l-109 0 0 -81z"/>
<path d="M7416 4124 c-3 -9 -6 -42 -6 -74 l0 -57 48 -6 c26 -4 81 -9 123 -13
l77 -7 4 74 c3 41 3 80 0 87 -3 9 -37 12 -122 12 -98 0 -119 -3 -124 -16z"/>
<path d="M982 4112 l-982 -2 0 -464 c1 -397 3 -465 15 -470 20 -7 19 -46 0
-46 -13 0 -15 -26 -15 -175 0 -172 1 -179 41 -338 64 -256 102 -372 262 -792
71 -185 330 -705 352 -705 2 0 39 21 82 46 43 25 101 57 128 71 28 14 88 49
135 77 47 29 141 84 210 123 150 84 218 124 285 165 28 17 95 56 150 86 55 31
156 89 225 131 69 41 171 100 227 130 162 89 423 245 423 253 0 5 -7 8 -16 8
-10 0 -14 7 -12 23 2 14 10 22 23 22 16 0 20 -6 18 -27 l-2 -28 32 16 c70 36
70 35 15 137 -84 153 -131 259 -218 492 -127 342 -202 719 -217 1098 -4 101
-10 160 -17 162 -26 9 -218 10 -1144 7z m1063 -107 c0 -13 -8 -21 -22 -23 -17
-3 -23 2 -23 16 0 10 3 22 7 26 13 13 38 1 38 -19z m9 -219 c-4 -9 -14 -16
-23 -14 -20 4 -27 38 -9 49 18 11 40 -13 32 -35z m-1405 -70 c11 -13 6 -46 -8
-46 -3 0 -6 -36 -6 -80 0 -44 3 -80 8 -80 4 0 13 -11 19 -25 9 -21 8 -28 -7
-45 -21 -24 -57 -26 -75 -5 -9 11 -17 12 -30 5 -31 -16 -110 -13 -110 5 0 11
12 15 43 17 23 1 49 2 57 3 8 0 27 13 43 29 22 22 27 34 23 63 -2 19 0 50 4
69 6 24 4 37 -6 45 -17 14 -18 31 -2 47 16 16 33 15 47 -2z m630 -52 c12 -15
21 -37 21 -50 0 -14 6 -24 14 -24 25 0 201 -107 204 -124 2 -9 -1 -16 -6 -16
-12 0 -181 97 -201 115 -11 11 -19 10 -45 -6 -17 -10 -39 -19 -48 -19 -11 0
-18 -8 -18 -19 0 -10 -16 -50 -35 -87 -19 -38 -35 -79 -35 -90 0 -27 -25 -38
-52 -23 -14 8 -23 8 -31 0 -6 -6 -20 -11 -30 -11 -33 0 -84 -61 -95 -115 -6
-30 -7 -56 -2 -66 12 -21 110 -33 125 -15 49 62 145 30 145 -47 0 -33 -42 -77
-74 -77 -28 0 -65 27 -75 53 -9 25 -109 50 -137 34 -26 -15 -51 16 -36 45 21
42 34 135 23 157 -17 31 -13 49 14 67 21 14 30 15 48 5 32 -16 99 -9 129 15
28 22 111 186 99 194 -12 8 -31 47 -31 65 0 9 11 27 25 40 33 34 77 33 104 -1z
m605 -40 c23 -23 20 -51 -8 -69 -20 -13 -29 -14 -46 -5 -17 9 -25 9 -38 -3
-20 -18 -157 -87 -172 -87 -5 0 -10 6 -10 14 0 8 42 35 95 62 67 33 95 53 95
65 0 35 57 51 84 23z m194 -27 c4 -20 -25 -34 -40 -19 -15 15 -1 44 19 40 10
-2 19 -11 21 -21z m-1934 -79 c14 -22 -12 -52 -37 -42 -17 6 -23 44 -10 58 11
11 35 3 47 -16z m1721 3 c3 -5 -4 -65 -15 -133 -11 -68 -20 -126 -20 -130 0
-5 -7 -8 -15 -8 -8 0 -15 8 -15 18 0 20 27 207 35 240 6 23 20 29 30 13z
m-1537 -56 c3 -3 1 -10 -5 -16 -7 -7 -30 -5 -74 7 -72 20 -91 31 -71 43 12 7
137 -21 150 -34z m87 -19 c0 -29 -31 -44 -50 -25 -23 23 -9 51 24 47 18 -2 26
-9 26 -22z m1175 9 c19 -23 4 -47 -27 -43 -31 3 -44 35 -21 49 19 13 34 11 48
-6z m-796 -51 c47 -20 86 -43 86 -51 0 -19 -13 -17 -103 24 -94 42 -109 52
-101 65 7 11 3 12 118 -38z m1322 -23 c-4 -6 -16 -11 -27 -11 -21 0 -27 35 -6
43 16 6 41 -18 33 -32z m-429 -54 c64 -78 73 -97 51 -97 -15 0 -148 154 -148
171 0 27 38 -2 97 -74z m138 -117 c15 -17 16 -24 7 -46 -10 -20 -18 -25 -44
-22 -40 4 -56 28 -40 62 14 32 51 35 77 6z m335 -19 c0 -27 -19 -36 -37 -18
-18 18 -9 37 18 37 12 0 19 -7 19 -19z m-442 -33 c-3 -7 -33 -18 -69 -24 -120
-23 -414 -74 -421 -74 -7 0 -12 29 -5 31 1 0 99 18 217 39 237 42 284 47 278
28z m495 -162 c7 -18 -11 -36 -29 -29 -21 8 -17 43 5 43 10 0 21 -6 24 -14z
m-994 -122 c24 -54 76 -169 117 -255 82 -175 84 -180 66 -186 -8 -3 -36 44
-78 134 -81 169 -174 385 -174 402 0 35 30 -6 69 -95z m-1151 73 c2 -11 -3
-17 -17 -17 -23 0 -35 15 -26 31 10 15 39 6 43 -14z m2210 -150 c4 -20 -25
-34 -40 -19 -15 15 -1 44 19 40 10 -2 19 -11 21 -21z m-2168 -46 c0 -27 -19
-36 -37 -18 -18 18 -9 37 18 37 12 0 19 -7 19 -19z m1900 -6 c19 -23 8 -50
-20 -50 -16 0 -26 6 -28 18 -4 18 14 47 28 47 4 0 13 -7 20 -15z m348 -138 c4
-20 -25 -34 -40 -19 -15 15 -1 44 19 40 10 -2 19 -11 21 -21z m-2198 -43 c11
-12 10 -18 -3 -32 -16 -15 -18 -15 -34 0 -13 14 -14 20 -3 32 7 9 16 16 20 16
4 0 13 -7 20 -16z m2278 -147 c2 -12 -3 -17 -17 -17 -12 0 -21 6 -21 13 0 31
32 34 38 4z m-960 -9 c20 -20 15 -66 -9 -78 -26 -14 -69 11 -69 40 0 39 51 65
78 38z m-480 -25 c4 -30 -31 -49 -52 -27 -19 19 -20 26 -4 42 19 19 53 10 56
-15z m-776 -15 c8 -21 -2 -38 -22 -38 -22 0 -33 23 -17 39 15 15 34 14 39 -1z
m1393 -44 c38 -15 75 -31 82 -36 8 -6 20 -4 35 6 54 38 122 5 122 -59 0 -90
-133 -97 -142 -8 -3 27 -9 31 -75 52 -85 28 -127 48 -127 61 0 16 31 11 105
-16z m-1327 -161 c5 -17 -26 -29 -40 -15 -6 6 -7 15 -3 22 9 14 37 9 43 -7z
m61 -182 c17 -11 7 -41 -13 -41 -19 0 -29 17 -22 35 6 17 15 18 35 6z m86
-206 c0 -13 -8 -21 -22 -23 -17 -3 -23 2 -23 16 0 10 3 22 7 26 13 13 38 1 38
-19z m83 -187 c-4 -27 -33 -36 -42 -13 -8 22 1 35 25 35 15 0 20 -6 17 -22z
m90 -181 c4 -20 -25 -34 -40 -19 -15 15 -1 44 19 40 10 -2 19 -11 21 -21z
m102 -187 c0 -15 -7 -20 -25 -20 -18 0 -25 5 -25 20 0 15 7 20 25 20 18 0 25
-5 25 -20z"/>
<path d="M2677 4108 c-19 -11 -4 -305 23 -470 6 -32 15 -86 21 -120 23 -142
102 -405 183 -613 38 -97 164 -351 182 -366 11 -9 30 -2 97 38 45 28 111 66
147 85 97 53 128 71 256 148 64 39 139 82 168 97 28 14 132 74 231 133 99 59
218 127 264 151 46 25 89 51 94 60 7 10 -3 40 -33 104 -112 241 -163 425 -176
645 l-7 110 -719 2 c-396 2 -725 0 -731 -4z m411 -240 c21 -21 14 -66 -12 -83
-28 -19 -58 -9 -76 26 -25 45 51 94 88 57z m606 -77 c82 -11 143 -24 151 -32
17 -19 97 -313 89 -332 -8 -22 -35 -30 -50 -15 -7 7 -26 62 -42 121 -16 59
-32 110 -35 114 -9 8 -69 -47 -169 -158 l-88 -97 50 -52 c54 -56 62 -83 30
-100 -17 -9 -28 -4 -74 40 -29 27 -57 50 -62 50 -5 0 -50 -43 -100 -96 -83
-88 -93 -95 -112 -85 -12 7 -22 20 -22 29 0 10 38 61 85 113 47 52 85 97 85
100 0 4 -15 20 -32 36 -50 44 -60 60 -53 83 10 32 47 24 90 -20 21 -22 44 -40
51 -40 13 0 249 248 243 255 -3 2 -55 10 -116 18 -61 8 -116 18 -122 22 -12 7
-15 48 -4 58 10 11 57 8 207 -12z"/>
<path d="M8425 4110 l-720 -5 -7 -110 c-15 -213 -67 -409 -164 -615 -30 -63
-53 -119 -50 -126 2 -6 53 -38 113 -70 59 -32 160 -89 223 -127 63 -38 160
-95 215 -125 55 -30 156 -89 225 -130 69 -41 139 -82 155 -92 17 -9 77 -43
135 -75 58 -32 121 -69 140 -82 19 -13 39 -23 45 -23 19 0 122 201 183 355
155 389 216 650 243 1038 9 141 9 171 -2 180 -11 9 -198 11 -734 7z m87 -340
c83 -26 150 -73 146 -103 -5 -33 -34 -32 -101 4 -59 32 -68 34 -164 34 -56 0
-105 -3 -109 -8 -4 -4 2 -17 13 -30 31 -34 43 -62 43 -102 0 -105 -115 -182
-211 -141 -104 44 -130 181 -48 250 122 103 289 140 431 96z m107 -256 c15 -9
37 -31 50 -50 20 -28 23 -43 19 -92 -6 -86 -46 -129 -159 -175 -45 -18 -75
-21 -179 -22 -125 0 -125 0 -189 36 -77 42 -111 80 -91 104 18 22 36 19 86
-15 24 -17 62 -37 85 -45 47 -17 185 -20 194 -5 3 6 -4 25 -17 42 -33 47 -32
130 2 176 14 19 36 40 50 48 34 18 116 17 149 -2z m-130 -578 c25 -45 -25 -91
-68 -64 -23 14 -28 57 -9 76 21 21 63 14 77 -12z"/>
<path d="M8154 3636 c-68 -30 -56 -123 19 -149 22 -8 72 16 81 38 11 30 6 73
-11 93 -25 28 -52 33 -89 18z"/>
<path d="M8492 3435 c-41 -34 -41 -67 -3 -106 36 -35 70 -37 107 -6 52 45 28
119 -42 133 -24 4 -37 0 -62 -21z"/>
<path d="M9419 4112 l-205 -2 -13 -173 c-22 -314 -77 -612 -153 -832 -48 -140
-145 -369 -204 -486 -30 -58 -54 -110 -54 -115 0 -6 84 -58 187 -116 l187
-107 49 87 c43 76 111 213 152 307 21 49 120 333 148 425 70 233 120 522 135
798 9 153 5 215 -13 216 -6 1 -103 0 -216 -2z m-81 -793 c132 -33 153 -42 136
-59 -6 -6 -49 1 -119 19 -61 15 -122 31 -137 35 -26 6 -40 36 -18 36 6 0 68
-14 138 -31z m110 -151 c-3 -7 -20 -14 -39 -15 -127 -10 -179 -16 -179 -21 0
-4 24 -20 53 -36 28 -16 68 -41 87 -55 19 -14 37 -26 39 -28 2 -1 1 -9 -2 -17
-5 -12 -33 1 -129 63 -68 42 -124 85 -126 94 -4 18 28 21 206 25 71 2 93 -1
90 -10z"/>
<path d="M2180 4018 c0 -202 39 -517 91 -738 32 -134 138 -460 196 -600 33
-81 174 -361 196 -388 8 -10 15 -9 35 4 14 9 88 52 166 96 78 44 151 86 164
94 l22 14 -58 113 c-52 98 -158 355 -221 532 -66 189 -127 536 -139 800 l-7
160 -222 3 -223 2 0 -92z m460 -608 c0 -5 -18 -24 -40 -41 -22 -18 -40 -38
-40 -45 0 -6 23 -17 50 -24 52 -12 69 -25 53 -41 -5 -5 -37 -1 -77 11 -67 19
-69 19 -95 1 -14 -11 -39 -33 -55 -50 -29 -30 -56 -41 -56 -22 0 5 18 28 40
51 22 23 40 45 40 50 0 4 -21 13 -47 20 -54 15 -68 24 -59 38 4 7 31 3 76 -9
l70 -20 56 45 c53 44 84 57 84 36z m50 -219 c0 -5 -15 -14 -32 -20 -57 -18
-248 -54 -254 -48 -14 13 11 26 83 42 43 10 92 21 108 25 42 11 95 12 95 1z"/>
<path d="M9691 3928 c-21 -314 -65 -594 -132 -825 -66 -229 -202 -567 -294
-729 -30 -55 -55 -104 -55 -110 0 -15 40 -41 76 -50 16 -4 32 -11 35 -16 6
-10 368 -226 486 -290 37 -21 111 -63 163 -94 52 -31 149 -87 215 -124 66 -37
161 -92 210 -122 50 -30 137 -81 195 -113 58 -32 164 -92 235 -135 72 -42 179
-105 240 -139 l110 -63 23 29 c12 15 81 145 152 288 263 533 417 993 536 1605
58 298 101 710 75 710 -21 0 -23 42 -3 63 17 19 20 39 23 157 l4 135 -1141 3
-1141 2 -12 -182z m2226 71 c16 -16 5 -39 -17 -39 -25 0 -35 18 -20 35 15 18
22 19 37 4z m-2087 -49 c0 -21 -33 -29 -45 -10 -9 15 4 30 26 30 12 0 19 -7
19 -20z m2077 -187 c-16 -16 -18 -16 -34 0 -17 17 -17 19 2 33 17 12 21 12 34
-1 14 -13 13 -17 -2 -32z m-2089 -16 c4 -20 -25 -34 -40 -19 -15 15 -1 44 19
40 10 -2 19 -11 21 -21z m342 -106 c5 -11 10 -29 10 -40 0 -12 4 -21 9 -21 5
0 58 -59 118 -131 59 -73 132 -160 161 -195 47 -57 58 -84 32 -84 -4 0 -43 44
-86 98 -43 53 -108 131 -144 172 -36 41 -75 88 -86 103 -13 16 -32 27 -46 27
-31 0 -48 18 -48 50 0 34 7 40 41 40 18 0 32 -7 39 -19z m1738 -64 c4 -20 -25
-34 -40 -19 -15 15 -1 44 19 40 10 -2 19 -11 21 -21z m-2111 -18 c16 -16 5
-39 -17 -39 -23 0 -34 16 -26 35 6 18 28 19 43 4z m1030 -25 c8 -20 -8 -48
-30 -52 -22 -5 -42 35 -26 54 16 19 48 18 56 -2z m1058 -164 c0 -8 -10 -16
-22 -18 -18 -3 -23 2 -23 18 0 16 5 21 23 18 12 -2 22 -10 22 -18z m-2125 -15
c15 -17 5 -35 -20 -35 -22 0 -33 23 -17 39 15 15 22 14 37 -4z m2089 -179 c9
-10 8 -16 -4 -26 -19 -16 -41 1 -32 24 8 20 21 20 36 2z m-1273 -21 c4 -8 1
-22 -5 -29 -8 -9 -8 -16 -2 -20 13 -8 41 -107 41 -145 0 -27 4 -31 26 -31 33
0 84 -50 84 -84 0 -38 -18 -71 -51 -90 -91 -54 -177 77 -100 150 21 19 27 33
22 43 -4 9 -16 48 -26 86 -10 39 -24 77 -31 86 -8 8 -14 23 -14 32 0 22 48 23
56 2z m-861 -15 c0 -22 -39 -19 -43 3 -3 15 1 18 20 15 12 -2 23 -10 23 -18z
m1330 -58 c0 -18 -20 -15 -23 4 -3 10 1 15 10 12 7 -3 13 -10 13 -16z m775
-117 c0 -21 -30 -31 -40 -14 -11 17 -3 29 21 29 10 0 19 -7 19 -15z m-2162
-22 c5 -17 -26 -29 -40 -15 -6 6 -7 15 -3 22 9 14 37 9 43 -7z m2122 -184 c0
-12 -7 -19 -19 -19 -26 0 -36 17 -21 35 15 18 40 8 40 -16z m-2187 -3 c6 -16
-11 -36 -30 -36 -7 0 -13 11 -13 25 0 18 5 25 19 25 10 0 21 -6 24 -14z m1252
-90 c44 -39 85 -75 91 -81 6 -5 46 -42 90 -81 230 -206 253 -224 281 -224 34
0 53 -16 53 -45 0 -27 -18 -45 -45 -45 -25 0 -45 18 -45 40 0 8 -64 72 -142
140 -79 69 -170 150 -203 180 -33 31 -97 89 -142 129 -46 40 -80 77 -77 83 8
13 44 -12 139 -96z m-255 52 c0 -7 -22 -67 -49 -133 -27 -66 -74 -179 -104
-252 -33 -80 -53 -142 -50 -156 5 -25 -19 -57 -42 -57 -22 0 -46 31 -43 54 2
11 14 26 28 33 20 10 44 58 129 267 62 152 110 256 118 256 7 0 13 -6 13 -12z
m1138 -151 c4 -20 -25 -34 -40 -19 -15 15 -1 44 19 40 10 -2 19 -11 21 -21z
m-2215 -1 c6 -15 -11 -36 -29 -36 -14 0 -27 28 -18 41 8 14 41 11 47 -5z m199
-63 c26 -23 23 -59 -7 -79 -23 -15 -27 -15 -50 0 -29 19 -33 56 -9 80 20 21
43 20 66 -1z m-295 -114 c14 -14 6 -39 -12 -39 -18 0 -28 17 -21 35 6 18 18
19 33 4z m2251 -22 c4 -20 -25 -34 -40 -19 -15 15 -1 44 19 40 10 -2 19 -11
21 -21z m-63 -197 c0 -8 -10 -16 -22 -18 -18 -3 -23 2 -23 18 0 16 5 21 23 18
12 -2 22 -10 22 -18z m-836 -157 c12 -23 -4 -53 -29 -53 -29 0 -44 35 -24 54
20 21 41 20 53 -1z m769 -36 c4 -20 -25 -34 -40 -19 -15 15 -1 44 19 40 10 -2
19 -11 21 -21z m-80 -190 c4 -20 -25 -34 -40 -19 -15 15 -1 44 19 40 10 -2 19
-11 21 -21z m-89 -176 c8 -14 7 -22 -4 -31 -17 -14 -35 -5 -35 19 0 34 24 42
39 12z m-81 -194 c4 -20 -25 -34 -40 -19 -15 15 -1 44 19 40 10 -2 19 -11 21
-21z m-102 -196 c-4 -6 -16 -11 -27 -11 -21 0 -27 35 -6 43 16 6 41 -18 33
-32z"/>
<path d="M4240 4003 c-30 -3 -57 -9 -61 -14 -7 -12 9 -141 19 -151 4 -4 60 3
125 15 l117 22 -6 60 c-4 33 -9 63 -11 68 -4 7 -75 7 -183 0z"/>
<path d="M7406 3949 c-14 -46 -26 -112 -21 -118 12 -11 230 -60 237 -52 9 8
28 103 28 136 0 24 13 21 -182 42 -44 4 -59 2 -62 -8z"/>
<path d="M4330 3826 c-58 -12 -110 -24 -116 -28 -12 -8 -10 -26 15 -116 12
-42 13 -44 45 -38 44 8 189 56 199 66 9 8 -17 118 -30 130 -4 4 -55 -3 -113
-14z"/>
<path d="M7371 3781 c-15 -30 -32 -114 -24 -121 14 -13 223 -79 227 -72 11 19
45 146 41 151 -4 3 -58 17 -121 32 -103 23 -116 24 -123 10z"/>
<path d="M4355 3641 c-49 -16 -91 -34 -93 -41 -5 -15 47 -150 58 -150 11 0
220 98 220 104 0 2 -10 29 -21 60 -26 67 -31 68 -164 27z"/>
<path d="M7301 3579 c-11 -29 -21 -59 -21 -69 0 -20 206 -119 219 -104 17 20
61 138 54 145 -8 8 -209 79 -223 79 -4 0 -17 -23 -29 -51z"/>
<path d="M4435 3469 c-49 -22 -94 -44 -98 -48 -8 -8 45 -135 60 -144 7 -4 190
97 208 114 11 12 -46 119 -63 118 -9 0 -57 -18 -107 -40z"/>
<path d="M11977 3346 c-25 -202 -68 -426 -127 -664 -93 -377 -121 -463 -276
-857 -66 -165 -260 -573 -323 -675 -11 -19 -21 -42 -21 -50 0 -14 121 -91 215
-138 22 -11 94 -52 159 -91 66 -39 123 -71 127 -71 7 0 104 175 213 383 l56
108 0 330 0 329 -41 0 -41 0 6 58 c4 31 9 69 12 85 5 22 2 27 -13 27 -33 0
-63 -42 -63 -88 0 -46 -16 -57 -26 -17 -20 81 62 155 139 126 l27 -11 0 95 c0
104 -8 115 -48 72 -16 -17 -22 -36 -22 -66 0 -38 -2 -42 -15 -31 -35 29 1 123
55 143 37 14 43 61 10 70 -11 3 -20 11 -20 17 0 7 8 10 20 7 20 -5 20 0 20
524 0 291 -1 529 -3 529 -1 0 -10 -65 -20 -144z m-87 -1442 c77 -24 107 -43
82 -52 -7 -2 -12 -19 -12 -38 0 -23 -5 -34 -14 -34 -9 0 -12 7 -9 19 9 34 -17
62 -83 91 -60 28 -77 40 -54 40 6 0 47 -12 90 -26z"/>
<path d="M7252 3457 c-19 -24 -53 -98 -48 -106 7 -10 170 -119 190 -127 11 -4
25 15 50 65 20 39 36 73 36 76 0 3 -35 21 -77 41 -43 19 -89 40 -103 46 -14 7
-28 13 -31 15 -4 1 -11 -3 -17 -10z"/>
<path d="M4523 3307 c-57 -34 -103 -67 -103 -72 0 -15 80 -125 91 -125 15 0
189 130 189 141 0 9 -67 119 -72 119 -2 0 -49 -28 -105 -63z"/>
<path d="M7136 3270 c-20 -28 -36 -54 -36 -59 0 -5 15 -20 33 -32 17 -13 58
-44 90 -71 33 -26 62 -46 66 -43 14 8 91 112 91 122 0 10 -185 133 -200 133
-4 0 -24 -23 -44 -50z"/>
<path d="M4629 3156 c-48 -35 -89 -68 -92 -73 -7 -10 72 -120 92 -128 14 -5
181 150 181 169 0 11 -80 96 -90 96 -3 0 -44 -29 -91 -64z"/>
<path d="M4276 3160 c-49 -28 -91 -50 -93 -50 -3 0 -35 -19 -71 -43 -37 -24
-146 -88 -242 -142 -96 -54 -202 -115 -235 -135 -33 -20 -123 -72 -200 -115
-188 -105 -315 -184 -315 -196 0 -20 128 -210 231 -342 190 -243 468 -511 687
-661 103 -71 223 -146 233 -146 4 0 33 46 64 103 32 56 93 161 135 232 43 72
94 162 115 200 21 39 79 140 130 225 50 85 113 195 139 243 26 48 70 124 97
167 27 44 49 84 49 89 0 4 -39 34 -87 65 -146 93 -312 255 -445 434 -50 67
-94 122 -97 122 -3 0 -46 -23 -95 -50z m-241 -470 c7 0 28 -12 45 -27 26 -22
35 -24 49 -15 85 63 126 68 171 24 48 -48 53 -90 43 -352 -9 -266 -6 -316 27
-342 21 -17 23 -17 60 5 37 21 40 21 56 5 22 -21 13 -43 -28 -68 -65 -39 -133
-18 -166 52 -26 53 -28 109 -18 388 8 226 3 260 -37 268 -21 4 -84 -43 -92
-69 -4 -11 -8 -126 -10 -257 -2 -130 -4 -241 -4 -245 -1 -5 -13 -7 -28 -5
l-28 3 -5 250 c-4 211 -8 255 -22 281 -10 17 -25 35 -34 38 -22 9 -68 -35 -93
-88 -17 -37 -18 -52 -10 -149 5 -59 8 -156 7 -215 -3 -95 -5 -107 -22 -110
-36 -7 -41 13 -46 216 -5 184 -7 200 -30 247 -31 63 -59 70 -97 26 -33 -37
-60 -40 -69 -7 -20 82 114 140 186 79 19 -15 35 -22 38 -16 38 57 100 98 130
88 8 -3 20 -5 27 -5z"/>
<path d="M7403 3138 c-139 -198 -359 -415 -509 -503 -35 -21 -64 -41 -64 -45
0 -4 23 -45 52 -91 28 -46 77 -131 108 -189 31 -58 76 -136 100 -175 52 -84
67 -110 142 -245 33 -58 90 -157 127 -220 38 -63 97 -166 132 -227 35 -62 67
-113 73 -113 5 0 75 43 155 96 262 173 548 435 738 677 87 110 253 356 253
374 0 16 -60 54 -270 173 -91 51 -203 117 -250 145 -47 29 -112 67 -145 85
-117 64 -290 163 -315 180 -34 24 -261 150 -269 150 -4 0 -30 -33 -58 -72z
m487 -516 c23 -11 43 -33 58 -62 20 -38 23 -56 19 -120 -3 -64 -11 -90 -51
-175 -68 -144 -73 -235 -12 -235 29 0 76 46 76 74 0 54 61 77 68 26 11 -74
-66 -170 -136 -170 -52 0 -97 31 -112 75 -22 66 -8 132 49 251 59 121 69 164
51 218 -15 46 -44 66 -97 66 -62 0 -92 -15 -108 -55 -21 -49 -19 -95 10 -210
20 -83 23 -107 14 -140 -19 -72 -88 -125 -164 -125 -99 0 -185 114 -157 209
24 79 81 123 165 125 l48 1 2 70 c4 130 64 195 182 195 37 0 73 -7 95 -18z"/>
<path d="M7489 2271 c-46 -46 -35 -117 22 -146 75 -39 168 32 140 108 -27 71
-109 91 -162 38z"/>
<path d="M7029 3139 c-19 -23 -35 -45 -37 -50 -5 -13 64 -94 120 -141 l49 -41
38 37 c21 21 44 48 51 62 12 21 11 27 -11 50 -30 33 -153 124 -166 124 -6 0
-26 -19 -44 -41z"/>
<path d="M4743 3009 c-46 -45 -83 -85 -83 -88 0 -10 107 -101 117 -101 10 0
153 166 153 177 0 11 -83 93 -95 93 -5 0 -47 -37 -92 -81z"/>
<path d="M6911 3018 c-27 -24 -50 -46 -50 -50 -1 -10 138 -182 150 -186 9 -4
109 82 117 99 2 4 -35 46 -82 93 l-85 86 -50 -42z"/>
<path d="M4919 2933 c-79 -85 -113 -135 -102 -152 14 -23 106 -91 118 -88 11
4 135 187 135 199 0 10 -91 78 -104 78 -7 0 -28 -17 -47 -37z"/>
<path d="M6767 2904 l-48 -35 37 -67 c48 -87 85 -142 94 -142 17 0 130 81 130
93 0 19 -133 181 -151 184 -8 2 -36 -13 -62 -33z"/>
<path d="M5091 2866 c-18 -22 -121 -188 -121 -195 0 -7 130 -84 135 -79 21 23
115 212 109 218 -5 4 -32 22 -61 38 -41 25 -54 28 -62 18z"/>
<path d="M6623 2818 c-29 -16 -53 -34 -53 -39 0 -8 97 -208 105 -217 6 -6 135
70 135 80 0 20 -112 208 -124 207 -6 -1 -35 -15 -63 -31z"/>
<path d="M5232 2758 c-48 -81 -92 -166 -92 -179 0 -12 96 -62 138 -71 9 -2 27
35 53 106 21 60 39 112 39 116 0 5 -104 60 -114 60 -3 0 -13 -15 -24 -32z"/>
<path d="M6515 2762 c-6 -5 -26 -15 -45 -22 -59 -23 -59 -21 -19 -141 21 -61
40 -113 42 -116 7 -7 141 53 145 65 4 12 -97 222 -107 222 -4 0 -11 -4 -16 -8z"/>
<path d="M5385 2683 c-35 -83 -65 -187 -56 -196 11 -11 143 -48 149 -42 10 10
61 230 54 236 -6 6 -113 39 -126 39 -3 0 -13 -17 -21 -37z"/>
<path d="M6313 2691 c-29 -9 -55 -19 -58 -23 -8 -8 33 -219 45 -231 10 -12
151 23 156 38 6 15 -70 228 -82 231 -5 1 -32 -6 -61 -15z"/>
<path d="M5538 2558 c-15 -63 -22 -117 -18 -122 12 -12 143 -36 151 -28 4 4
12 50 19 102 6 52 14 105 17 117 5 24 -4 29 -87 38 l-56 7 -26 -114z"/>
<path d="M6115 2651 c-22 -3 -40 -10 -40 -16 2 -46 18 -204 22 -219 5 -17 12
-18 71 -12 83 9 105 20 96 49 -4 12 -15 63 -24 112 l-16 90 -34 1 c-19 1 -53
-1 -75 -5z"/>
<path d="M5736 2633 c-11 -38 -29 -224 -22 -230 4 -4 41 -9 82 -11 l74 -4 1
78 c1 44 2 96 3 116 2 20 0 41 -3 46 -3 5 -34 12 -68 16 -54 6 -62 5 -67 -11z"/>
<path d="M5906 2624 c-10 -26 -7 -232 4 -236 5 -1 42 -1 82 2 l73 5 -2 35 c0
19 -4 74 -8 123 l-7 87 -68 0 c-53 0 -69 -4 -74 -16z"/>
<path d="M1 2388 c-1 -195 0 -208 19 -221 23 -16 50 -76 50 -110 0 -14 -7 -30
-15 -37 -13 -11 -15 -6 -15 38 0 35 -6 57 -20 73 l-19 24 -1 -117 c0 -114 0
-116 21 -111 16 4 20 2 17 -8 -3 -8 6 -27 18 -42 45 -53 23 -153 -36 -172 -18
-6 -20 -16 -20 -117 0 -101 1 -109 16 -97 13 11 15 26 11 77 -7 73 3 109 35
121 57 22 118 -44 118 -127 0 -58 -23 -51 -26 8 -4 70 -54 119 -91 89 -13 -11
-14 -27 -10 -84 7 -75 -7 -115 -39 -115 -12 0 -14 -38 -14 -240 l0 -240 45
-90 c25 -50 49 -90 55 -90 5 0 69 35 142 78 73 43 158 91 188 106 65 34 180
106 180 113 0 2 -17 35 -39 71 -92 159 -249 490 -317 667 -131 341 -172 461
-243 725 -7 25 -9 -23 -10 -172z"/>
<path d="M4978 2463 c-36 -60 -85 -144 -108 -188 -24 -44 -90 -158 -147 -253
-56 -95 -114 -195 -128 -222 -14 -28 -58 -105 -99 -173 -112 -188 -176 -303
-176 -320 0 -36 438 -229 690 -303 212 -63 554 -116 760 -118 l125 -1 3 710
c1 391 0 719 -3 731 -4 19 -14 21 -118 27 -201 11 -470 82 -639 169 -45 23
-86 44 -89 46 -3 1 -35 -46 -71 -105z m422 -424 c56 -25 105 -72 132 -124 28
-55 28 -166 -1 -223 -11 -22 -17 -42 -14 -46 4 -3 32 -6 63 -6 66 0 88 -16 70
-49 -10 -19 -20 -21 -133 -21 -126 0 -147 6 -147 41 0 10 16 31 36 47 57 47
74 80 74 142 0 70 -23 116 -77 154 -36 25 -53 30 -106 30 -54 1 -70 -3 -106
-27 -103 -69 -106 -225 -6 -297 26 -19 34 -31 33 -50 -3 -21 -9 -26 -48 -32
-78 -11 -225 -9 -238 4 -18 18 -14 46 7 58 11 5 47 10 80 10 34 0 61 4 61 8 0
5 -8 24 -17 43 -27 51 -24 171 4 225 61 115 214 167 333 113z m248 -593 c9
-43 -13 -46 -364 -46 -289 0 -335 2 -348 16 -19 19 -20 26 -4 42 9 9 98 12
362 10 338 -3 351 -4 354 -22z"/>
<path d="M6740 2544 c-174 -99 -449 -176 -685 -192 l-110 -7 -3 -734 -2 -734
137 6 c327 15 688 88 963 194 118 46 373 161 435 197 l46 27 -44 82 c-25 45
-86 151 -136 235 -50 85 -103 176 -116 202 -13 26 -64 115 -113 197 -48 81
-108 184 -132 228 -49 89 -177 306 -188 317 -4 4 -27 -4 -52 -18z m-211 -521
l31 -37 33 32 c83 80 176 29 196 -107 6 -44 8 -46 36 -43 74 6 115 -36 115
-119 0 -56 -46 -210 -94 -314 l-35 -75 24 -16 c21 -14 26 -14 54 0 36 19 61
12 61 -19 0 -52 -90 -80 -152 -47 -22 12 -29 11 -63 -12 -52 -36 -122 -36
-155 -2 -35 39 -2 85 41 58 28 -18 55 -14 79 11 20 21 21 32 26 295 6 285 1
332 -36 352 -39 21 -118 -76 -105 -128 9 -35 8 -383 -1 -405 -4 -12 -15 -17
-33 -15 l-26 3 -1 205 c-2 211 -16 306 -49 339 -13 13 -18 12 -41 -10 -14 -13
-36 -42 -49 -64 -23 -39 -23 -42 -9 -100 17 -74 28 -299 16 -340 -6 -22 -15
-31 -35 -33 -15 -2 -27 0 -28 5 0 4 -2 69 -4 143 -4 149 -23 267 -54 328 -26
51 -44 57 -80 27 -46 -40 -79 -29 -67 20 8 32 63 69 103 69 24 0 42 -9 68 -34
l35 -34 17 24 c37 52 76 80 115 80 30 0 42 -6 67 -37z"/>
<path d="M6814 1763 c-16 -23 -19 -50 -22 -148 -2 -111 -1 -118 13 -93 23 41
67 203 63 235 -4 38 -31 41 -54 6z"/>
<path d="M3025 2438 c-46 -23 -304 -176 -322 -191 -16 -12 -11 -21 80 -157
107 -160 223 -313 336 -440 118 -134 352 -358 459 -439 174 -132 327 -240 387
-272 76 -40 62 -51 155 120 35 64 79 140 97 170 19 29 33 55 31 56 -2 2 -73
50 -160 107 -86 57 -210 148 -275 203 -137 115 -382 364 -455 462 -28 37 -71
92 -95 121 -25 29 -75 103 -112 164 -36 61 -71 113 -76 114 -6 2 -28 -6 -50
-18z m409 -607 c3 -4 -39 -55 -94 -112 -77 -81 -102 -101 -111 -92 -10 10 8
34 82 112 90 95 111 111 123 92z m66 -62 c0 -16 -183 -208 -198 -209 -25 0 -7
28 82 124 81 88 116 114 116 85z m70 -60 c0 -7 -39 -52 -87 -102 -49 -49 -94
-96 -102 -104 -10 -10 -17 -11 -24 -4 -12 12 -1 26 118 149 65 68 95 87 95 61z
m120 -124 c0 -19 -115 -261 -128 -269 -28 -17 -19 22 24 109 26 52 45 97 42
101 -3 3 -47 -15 -97 -40 -50 -25 -97 -46 -106 -46 -34 0 -10 22 64 60 44 21
101 53 127 70 53 33 74 38 74 15z"/>
<path d="M8715 2395 c-235 -386 -589 -751 -977 -1009 -82 -54 -148 -102 -148
-107 0 -5 24 -50 53 -99 28 -49 74 -130 102 -179 27 -50 55 -91 62 -91 8 0 48
21 91 47 264 160 589 438 839 718 138 155 412 543 398 565 -11 17 -358 220
-377 220 -2 0 -21 -29 -43 -65z m-250 -716 c69 -39 125 -75 125 -80 0 -23 -27
-14 -112 36 -51 30 -94 51 -96 47 -1 -5 15 -53 37 -108 22 -54 38 -101 36
-103 -13 -12 -35 15 -55 66 -13 32 -38 89 -57 127 -18 38 -33 73 -33 78 0 19
37 4 155 -63z"/>
<path d="M2540 2159 c-52 -28 -106 -59 -120 -69 -14 -10 -41 -27 -60 -38 -161
-91 -274 -157 -385 -222 -71 -42 -188 -109 -260 -150 -71 -40 -168 -96 -215
-125 -47 -28 -119 -70 -160 -92 -73 -39 -255 -145 -335 -194 -22 -14 -80 -47
-130 -73 -97 -53 -195 -114 -195 -123 0 -3 34 -62 76 -132 156 -258 396 -581
612 -824 l105 -117 1018 0 1018 0 54 93 c29 50 80 139 112 197 32 58 71 124
87 147 15 23 54 90 86 150 32 59 65 118 73 131 12 19 12 24 1 31 -24 14 -9 46
19 44 19 -1 30 7 44 33 10 19 16 36 13 39 -2 3 -65 44 -139 91 -74 47 -165
112 -204 143 -38 31 -97 76 -130 100 -85 63 -310 278 -418 399 -155 175 -312
383 -398 526 -28 47 -57 86 -63 86 -6 0 -54 -23 -106 -51z m100 -98 c0 -27
-19 -36 -37 -18 -18 18 -9 37 18 37 12 0 19 -7 19 -19z m113 -165 c9 -22 -19
-42 -37 -26 -19 15 -10 40 14 40 10 0 20 -6 23 -14z m127 -176 c0 -21 -33 -29
-45 -10 -9 15 4 30 26 30 12 0 19 -7 19 -20z m125 -155 c0 -13 -8 -21 -22 -23
-17 -3 -23 2 -23 16 0 10 3 22 7 26 13 13 38 1 38 -19z m-359 -50 c16 -24 16
-27 -1 -45 -32 -36 -85 -20 -85 25 0 48 59 62 86 20z m499 -101 c0 -10 -8 -20
-17 -22 -18 -3 -26 27 -11 42 12 11 28 0 28 -20z m-35 -158 c0 -20 -25 -37
-44 -30 -19 7 -22 50 -3 57 17 6 47 -11 47 -27z m188 11 c4 -20 -25 -34 -40
-19 -15 15 -1 44 19 40 10 -2 19 -11 21 -21z m-161 -143 c12 -43 23 -92 23
-109 0 -73 -52 54 -68 164 -3 25 -1 32 9 29 8 -3 24 -40 36 -84z m311 13 c4
-20 -25 -34 -40 -19 -15 15 -1 44 19 40 10 -2 19 -11 21 -21z m-2642 -82 c9
-23 -15 -48 -32 -34 -17 14 -18 36 -1 42 21 9 27 7 33 -8z m2804 -40 c13 -16
6 -35 -15 -35 -18 0 -28 17 -21 35 7 19 20 19 36 0z m-974 -46 c52 -49 8 -158
-64 -159 -28 0 -79 25 -84 42 -3 9 -19 6 -59 -10 -70 -28 -81 -29 -86 -15 -5
13 78 53 108 53 15 0 19 7 19 31 0 22 9 40 32 61 28 26 38 29 71 25 21 -3 50
-16 63 -28z m-942 -8 c38 -42 -15 -94 -63 -63 -18 10 -26 12 -29 4 -2 -7 -8
-12 -13 -12 -6 0 -33 -10 -60 -21 -48 -21 -49 -23 -49 -64 0 -50 -25 -78 -72
-78 -56 0 -97 72 -65 114 20 26 58 41 87 35 18 -3 44 2 69 15 23 11 55 22 71
26 17 3 36 15 42 27 21 41 54 48 82 17z m1499 8 c24 -11 47 -47 47 -73 0 -24
-48 -66 -76 -66 -66 0 -96 79 -49 125 27 28 42 30 78 14z m-429 -35 c7 -19
-10 -44 -29 -44 -19 0 -38 28 -31 45 7 20 52 19 60 -1z m296 -16 c49 -18 -2
-27 -129 -21 -122 5 -149 11 -138 30 7 12 233 4 267 -9z m726 -19 c9 -16 -20
-41 -39 -33 -17 6 -22 25 -10 37 10 11 41 8 49 -4z m-2866 -29 c0 -23 -13 -32
-34 -24 -19 7 -21 25 -5 41 16 16 39 5 39 -17z m1417 -57 c4 -11 -3 -24 -23
-40 -16 -12 -26 -23 -23 -23 7 0 -61 -206 -75 -228 -5 -9 -12 -10 -17 -5 -10
10 52 215 71 238 6 7 8 20 4 29 -3 9 -4 23 0 31 7 20 55 19 63 -2z m823 -20
c0 -10 -11 -43 -24 -74 -19 -48 -21 -59 -9 -75 17 -24 17 -49 -3 -68 -23 -23
-51 -20 -70 9 -20 30 -11 58 22 74 14 6 23 15 20 19 -5 8 23 97 37 120 12 18
27 15 27 -5z m-2130 -93 c0 -13 -7 -20 -20 -20 -13 0 -20 7 -20 20 0 13 7 20
20 20 13 0 20 -7 20 -20z m380 -80 c0 -73 -3 -90 -15 -90 -12 0 -15 17 -15 90
0 73 3 90 15 90 12 0 15 -17 15 -90z m2325 -29 c0 -34 -30 -51 -51 -29 -25 24
-10 60 24 56 21 -2 27 -8 27 -27z m-2577 -63 c3 -13 -3 -18 -22 -18 -20 0 -26
5 -26 21 0 15 5 20 22 17 13 -2 24 -11 26 -20z m1950 -56 c-3 -57 -1 -81 9
-91 18 -16 -1 -51 -28 -51 -25 0 -36 27 -21 51 7 10 12 50 12 87 0 38 3 72 7
75 19 20 25 1 21 -71z m-1690 29 c20 -12 10 -45 -14 -49 -29 -4 -51 23 -34 43
14 17 29 19 48 6z m802 -15 c17 -22 8 -59 -17 -72 -13 -6 -20 -13 -17 -17 7
-6 -15 -151 -28 -186 -6 -17 -12 -21 -19 -14 -10 10 10 162 26 205 3 8 -1 21
-10 28 -19 16 -19 34 1 54 19 20 48 20 64 2z m-763 -63 c15 -20 53 -89 53 -98
0 -3 -6 -5 -14 -5 -14 0 -76 90 -76 110 0 16 22 11 37 -7z m-177 -54 c0 -12
-7 -19 -19 -19 -26 0 -36 17 -21 35 15 18 40 8 40 -16z m272 -70 c18 -29 249
-138 280 -132 13 3 29 -1 36 -9 9 -11 32 -12 119 -5 59 4 118 13 130 19 40 20
74 -29 36 -51 -10 -5 -24 -6 -33 -1 -17 9 -247 -3 -271 -14 -10 -4 -23 -1 -34
10 -22 22 -261 134 -286 134 -24 0 -40 29 -28 52 13 24 36 23 51 -3z m-138
-75 c8 -21 -1 -34 -25 -34 -12 0 -19 7 -19 18 0 34 33 45 44 16z m136 -164 c0
-24 -26 -38 -42 -22 -16 16 -2 42 22 42 13 0 20 -7 20 -20z"/>
<path d="M9150 2168 c-71 -128 -271 -398 -411 -555 -100 -112 -354 -357 -424
-409 -22 -16 -78 -60 -125 -97 -47 -38 -143 -105 -215 -149 -71 -45 -134 -85
-139 -89 -8 -7 54 -121 220 -404 45 -77 102 -176 126 -220 25 -44 66 -117 92
-162 l47 -83 1019 0 1019 0 92 103 c125 138 304 364 416 522 107 152 283 430
283 448 0 11 -130 93 -216 136 -23 11 -106 59 -185 107 -79 48 -182 107 -229
132 -47 25 -109 60 -138 79 -29 18 -55 33 -59 33 -3 0 -14 6 -22 14 -9 7 -74
46 -146 86 -71 39 -193 109 -270 154 -461 272 -679 395 -701 396 -6 0 -21 -19
-34 -42z m55 -154 c0 -10 -8 -20 -18 -22 -22 -4 -35 27 -16 39 20 12 34 5 34
-17z m-110 -169 c0 -30 -39 -27 -43 3 -3 20 0 23 20 20 15 -2 23 -10 23 -23z
m-131 -153 c9 -14 -12 -35 -28 -29 -23 9 -20 37 3 37 11 0 22 -4 25 -8z m384
-25 c9 -10 8 -19 -3 -34 -17 -25 -51 -21 -58 7 -9 34 38 55 61 27z m-513 -142
c0 -13 -8 -21 -22 -23 -17 -3 -23 2 -23 16 0 10 3 22 7 26 13 13 38 1 38 -19z
m-147 -147 c-2 -13 -10 -23 -18 -23 -8 0 -16 10 -18 23 -3 17 2 22 18 22 16 0
21 -5 18 -22z m1507 -93 c14 -13 25 -36 25 -50 0 -34 -42 -75 -76 -75 -16 0
-37 11 -55 31 -22 23 -32 28 -46 21 -10 -5 -58 -17 -106 -27 -83 -17 -113 -15
-91 4 16 14 185 52 205 46 13 -5 19 -2 19 10 0 25 46 65 75 65 14 0 37 -11 50
-25z m-1658 -36 c16 -16 5 -39 -17 -39 -25 0 -35 18 -20 35 15 18 22 19 37 4z
m1301 -96 c2 -12 -5 -27 -17 -35 -12 -8 -18 -17 -16 -20 11 -11 -37 -178 -51
-178 -8 0 -14 8 -14 18 1 24 34 150 43 158 4 4 4 18 1 30 -9 35 2 56 28 52 15
-2 24 -11 26 -25z m413 15 c9 -7 39 -40 67 -74 49 -58 63 -84 43 -84 -14 0
-151 156 -144 164 9 9 17 8 34 -6z m-1863 -63 c4 -20 -15 -36 -35 -28 -17 6
-17 40 0 46 19 8 32 2 35 -18z m2681 -34 c19 -12 6 -41 -19 -41 -13 0 -20 7
-20 18 0 31 14 39 39 23z m-2852 -87 c8 -21 -13 -42 -28 -27 -13 13 -5 43 11
43 6 0 13 -7 17 -16z m2233 -4 c22 -40 -27 -83 -70 -60 -22 12 -27 49 -8 68
19 19 66 15 78 -8z m-1529 -70 c22 -12 26 -59 7 -78 -7 -7 -21 -12 -33 -12
-29 0 -45 19 -45 52 0 39 34 57 71 38z m832 -12 c32 -16 46 -39 47 -71 0 -33
-39 -77 -69 -77 -83 0 -116 97 -49 144 27 19 42 20 71 4z m1207 -4 c11 -12 11
-18 -2 -31 -19 -18 -38 -10 -38 16 0 33 20 40 40 15z m-2910 -20 c11 -12 10
-18 -3 -32 -16 -15 -18 -15 -34 0 -13 14 -14 20 -3 32 7 9 16 16 20 16 4 0 13
-7 20 -16z m1345 -14 c211 -11 225 -13 225 -30 0 -6 -31 -10 -77 -10 -119 1
-571 28 -583 35 -6 3 -7 11 -4 17 5 7 45 9 123 5 64 -4 206 -11 316 -17z
m-560 -28 c0 -7 -41 -43 -92 -81 -51 -38 -120 -91 -153 -117 -49 -38 -63 -45
-73 -35 -9 10 -6 17 17 35 16 11 85 65 155 118 119 92 146 107 146 80z m1029
-131 c53 -66 74 -113 43 -94 -26 15 -128 144 -122 153 11 19 23 10 79 -59z
m984 6 c2 -11 -3 -17 -16 -17 -24 0 -32 8 -25 26 7 20 37 13 41 -9z m-2347
-126 c60 -61 24 -151 -61 -151 -52 0 -90 36 -90 87 0 46 46 93 90 93 22 0 41
-9 61 -29z m1473 -3 c16 -27 -14 -54 -43 -39 -24 13 -27 31 -9 49 16 16 38 12
52 -10z m762 -29 c3 -6 -1 -18 -9 -27 -13 -13 -19 -13 -31 -2 -9 7 -16 19 -16
26 0 17 46 19 56 3z m-1936 -40 c151 -12 160 -13 160 -31 0 -10 -122 -5 -304
12 -94 10 -102 12 -91 30 4 7 23 9 48 6 23 -3 107 -11 187 -17z m261 11 c21
-12 25 -50 7 -68 -22 -22 -67 -14 -80 13 -9 21 -8 28 7 45 20 22 37 25 66 10z
m918 -106 c3 -89 -3 -124 -19 -108 -12 12 -25 176 -16 200 14 37 31 -7 35 -92z
m-740 27 c179 -53 606 -193 615 -202 5 -5 7 -12 3 -15 -9 -9 -100 17 -412 117
-137 44 -268 86 -289 93 -41 12 -61 36 -32 36 9 0 61 -13 115 -29z m1361 -46
c15 -18 5 -35 -21 -35 -12 0 -19 7 -19 18 0 33 20 42 40 17z m-580 -130 c60
-31 67 -90 16 -141 -35 -35 -62 -42 -99 -23 -36 18 -57 52 -57 91 0 28 7 42
31 62 35 30 67 33 109 11z m450 -30 c6 -8 9 -19 5 -25 -8 -13 -42 -13 -50 0
-7 11 12 40 25 40 4 0 13 -7 20 -15z m-135 -170 c0 -30 -39 -27 -43 3 -3 20 0
23 20 20 15 -2 23 -10 23 -23z"/>
<path d="M11966 2112 c-11 -18 -24 -127 -16 -135 4 -5 17 -6 29 -2 18 5 21 14
21 64 0 38 -5 63 -14 70 -8 7 -17 8 -20 3z"/>
<path d="M0 1805 c0 -41 4 -75 8 -75 20 0 52 48 52 78 0 31 -29 72 -50 72 -6
0 -10 -32 -10 -75z"/>
<path d="M4253 1203 c-20 -32 -70 -116 -111 -188 l-73 -130 23 -19 c62 -50
326 -170 602 -272 294 -110 744 -193 1070 -197 l131 -2 0 220 0 220 -147 7
c-308 14 -726 98 -986 200 -80 31 -353 158 -464 216 -4 2 -24 -23 -45 -55z
m739 -354 c-4 -60 -57 -252 -69 -257 -22 -7 -20 8 42 276 9 36 30 20 27 -19z
m88 -1 c0 -13 -12 -80 -26 -150 -19 -87 -31 -128 -41 -128 -7 0 -13 6 -13 12
0 12 48 249 56 276 6 21 24 13 24 -10z m181 -58 c4 -18 10 -90 14 -158 6 -104
5 -124 -6 -120 -10 3 -17 38 -25 119 -6 63 -12 116 -13 118 -2 9 -46 -56 -86
-128 -36 -64 -65 -90 -65 -59 0 29 150 269 165 265 5 -2 13 -19 16 -37z"/>
<path d="M7465 1222 c-216 -114 -465 -213 -665 -265 -264 -69 -489 -105 -720
-116 l-135 -6 -3 -222 -2 -223 77 0 c273 0 777 85 1038 174 142 48 363 137
485 194 99 46 220 116 220 128 0 16 -210 374 -219 373 -3 0 -37 -17 -76 -37z
m-468 -429 c79 -122 85 -135 68 -142 -5 -3 -35 33 -66 79 -31 46 -61 86 -67
88 -8 2 -12 -33 -14 -109 -2 -79 -7 -114 -15 -117 -10 -3 -13 32 -13 151 0
147 3 167 22 167 4 0 42 -53 85 -117z m-230 11 c8 -27 25 -85 38 -130 14 -44
25 -86 25 -92 0 -19 -28 -14 -34 6 -28 93 -66 239 -66 255 0 35 23 11 37 -39z"/>
<path d="M11942 1088 c-102 -200 -200 -375 -272 -488 -40 -63 -97 -153 -127
-200 -30 -47 -85 -128 -124 -180 -38 -52 -90 -123 -115 -158 l-45 -63 102 3
103 3 52 78 c29 43 84 122 123 177 38 54 135 208 215 341 l146 241 0 174 c0
96 -1 174 -3 174 -1 0 -26 -46 -55 -102z"/>
<path d="M525 993 c-126 -71 -387 -224 -398 -234 -5 -4 8 -33 29 -65 21 -33
46 -72 56 -89 79 -131 292 -440 394 -572 l25 -33 147 0 148 0 -4 40 c-4 35 0
44 31 75 56 56 126 45 163 -27 10 -18 14 -42 10 -59 l-6 -29 146 0 146 0 -62
70 c-119 134 -302 363 -399 501 -106 149 -153 219 -240 362 -40 64 -75 117
-79 117 -4 0 -52 -26 -107 -57z"/>
<path d="M11170 1012 c-13 -20 -55 -89 -93 -152 -138 -228 -425 -606 -616
-812 l-44 -48 394 1 394 0 21 27 c70 89 304 428 354 512 21 36 59 96 84 135
25 38 46 72 46 76 0 8 -254 161 -328 199 -24 12 -73 39 -108 61 -35 21 -68 39
-72 39 -4 0 -18 -17 -32 -38z"/>
<path d="M0 716 l0 -157 67 -107 c37 -59 90 -138 118 -177 28 -38 81 -116 118
-173 l68 -102 100 0 100 0 -57 83 c-32 45 -90 125 -129 179 -80 110 -284 430
-340 533 -21 39 -39 72 -41 74 -2 2 -4 -66 -4 -153z"/>
<path d="M3973 723 c-39 -65 -83 -143 -98 -173 -15 -30 -44 -82 -65 -115 -58
-95 -174 -294 -213 -367 l-37 -68 1170 0 1170 0 0 99 c0 91 -2 100 -22 114
l-23 15 23 24 c22 24 29 63 14 84 -4 7 -68 13 -163 17 -311 13 -738 91 -1012
187 -112 38 -246 92 -347 138 -180 82 -230 106 -271 132 -25 17 -48 30 -51 30
-2 0 -36 -53 -75 -117z m160 -37 c7 -18 -11 -36 -29 -29 -8 3 -14 14 -14 24 0
22 35 26 43 5z m185 -99 c4 -20 -25 -34 -40 -19 -15 15 -1 44 19 40 10 -2 19
-11 21 -21z m190 -80 c4 -20 -25 -34 -40 -19 -15 15 -1 44 19 40 10 -2 19 -11
21 -21z m190 -70 c4 -20 -25 -34 -40 -19 -15 15 -1 44 19 40 10 -2 19 -11 21
-21z m197 -62 c0 -30 -39 -27 -43 3 -3 20 0 23 20 20 15 -2 23 -10 23 -23z
m203 -48 c4 -20 -25 -34 -40 -19 -15 15 -1 44 19 40 10 -2 19 -11 21 -21z
m200 -45 c3 -16 -2 -22 -16 -22 -21 0 -36 25 -26 41 10 17 39 5 42 -19z m207
-27 c0 -30 -39 -27 -43 3 -3 20 0 23 20 20 15 -2 23 -10 23 -23z m205 -14 c0
-23 -30 -37 -42 -19 -14 24 -8 38 17 38 18 0 25 -5 25 -19z"/>
<path d="M7725 805 c-138 -79 -515 -239 -684 -291 -287 -87 -655 -149 -948
-161 l-153 -6 0 -174 0 -173 431 0 431 0 -6 25 c-9 34 20 34 36 0 l11 -25 404
0 c355 0 407 2 428 16 23 15 27 15 50 0 21 -14 62 -16 285 -16 l260 0 -52 97
c-28 54 -97 175 -153 268 -56 94 -119 202 -139 242 -19 40 -49 87 -64 105 -16
18 -32 44 -35 58 -4 14 -15 35 -24 47 l-18 22 -60 -34z m-27 -148 c4 -20 -25
-34 -40 -19 -15 15 -1 44 19 40 10 -2 19 -11 21 -21z m-191 -78 c16 -16 5 -39
-17 -39 -25 0 -35 18 -20 35 15 18 22 19 37 4z m-192 -94 c0 -11 -7 -21 -16
-23 -18 -3 -33 23 -23 39 10 17 39 5 39 -16z m540 -11 c15 -6 45 -54 45 -73 0
-5 -12 -23 -26 -40 -33 -39 -74 -41 -109 -6 -61 60 7 151 90 119z m-725 -55
c0 -14 -7 -19 -25 -19 -18 0 -25 5 -25 19 0 11 6 21 13 24 20 7 37 -4 37 -24z
m-201 -43 c9 -11 8 -18 -5 -31 -15 -15 -18 -15 -32 -1 -13 12 -13 18 -2 30 15
20 24 20 39 2z m-202 -47 c15 -15 5 -39 -17 -39 -22 0 -32 24 -17 39 6 6 14
11 17 11 3 0 11 -5 17 -11z m1043 -158 c-22 -80 -37 -121 -46 -121 -18 0 -18
-6 12 119 30 120 41 148 56 133 6 -6 -1 -51 -22 -131z m-1242 106 c4 -20 -25
-34 -40 -19 -15 15 -1 44 19 40 10 -2 19 -11 21 -21z m-210 -25 c3 -17 -2 -22
-17 -22 -14 0 -21 6 -21 18 0 38 33 41 38 4z m-203 -16 c0 -22 -14 -29 -34
-17 -19 12 -6 43 16 39 10 -2 18 -12 18 -22z m63 -47 c4 -31 -19 -44 -49 -29
-19 11 -26 40 -12 54 4 4 19 6 33 4 19 -2 26 -10 28 -29z m627 -89 c0 -18 -6
-26 -23 -28 -13 -2 -25 3 -28 12 -10 26 4 48 28 44 17 -2 23 -10 23 -28z"/>
<path d="M11934 647 c-139 -233 -229 -376 -278 -442 -60 -79 -136 -191 -136
-199 0 -4 108 -6 240 -6 l240 0 0 375 c0 206 -1 375 -2 375 -2 0 -30 -47 -64
-103z"/>
<path d="M0 238 l0 -238 160 0 160 0 -42 63 c-24 34 -76 110 -118 168 -41 59
-94 138 -117 175 l-42 69 -1 -237z"/>
<path d="M1000 117 c-13 -7 -32 -23 -42 -38 -15 -20 -17 -30 -9 -52 10 -25 14
-27 75 -27 56 0 66 3 71 20 15 47 -6 81 -66 106 -3 2 -16 -3 -29 -9z"/>
</g>
</svg>
