<?xml version="1.0" standalone="no"?>
<!DOCTYPE svg PUBLIC "-//W3C//DTD SVG 20010904//EN"
 "http://www.w3.org/TR/2001/REC-SVG-20010904/DTD/svg10.dtd">
<svg version="1.0" xmlns="http://www.w3.org/2000/svg"
 width="225.000000pt" height="225.000000pt" viewBox="0 0 225.000000 225.000000"
 preserveAspectRatio="xMidYMid meet">

<g transform="translate(0.000000,225.000000) scale(0.100000,-0.100000)"
fill="#000000" stroke="none">
<path d="M412 2144 l-22 -15 0 -1003 c0 -921 1 -1005 17 -1017 24 -21 1412
-21 1436 0 16 12 17 96 17 1017 l0 1003 -22 15 c-20 14 -104 16 -713 16 -609
0 -693 -2 -713 -16z m1428 -23 c14 -27 14 -1965 0 -1992 -10 -18 -29 -19 -713
-19 -534 0 -706 3 -715 12 -16 16 -18 1969 -2 1999 10 18 29 19 715 19 686 0
705 -1 715 -19z"/>
<path d="M476 2092 c-4 -7 -13 -9 -19 -6 -7 4 -9 4 -5 -1 4 -4 3 -14 -3 -22
-9 -10 -8 -13 4 -13 8 0 18 -6 20 -12 4 -8 6 -7 6 4 1 9 5 18 10 20 4 2 5 12
1 22 -4 14 -9 16 -14 8z"/>
<path d="M1757 2080 c-3 -11 -1 -20 4 -20 5 0 9 -8 10 -17 0 -11 3 -13 6 -5 2
6 12 12 20 12 12 0 13 3 4 13 -6 8 -7 18 -3 23 4 5 3 6 -2 2 -5 -4 -15 -3 -21
2 -9 8 -14 5 -18 -10z"/>
<path d="M523 2030 l-23 -28 0 -879 1 -878 24 -28 24 -27 576 0 576 0 24 28
24 27 1 878 0 878 -22 29 -22 30 -580 -1 -581 0 -22 -29z m1193 -6 l24 -25 0
-775 0 -774 -615 0 -615 0 0 770 0 771 22 29 22 30 569 0 570 0 23 -26z m24
-1678 c0 -86 -2 -97 -24 -120 l-23 -26 -570 0 -569 0 -22 30 c-19 25 -22 42
-22 120 l0 90 615 0 615 0 0 -94z"/>
<path d="M643 1995 c-18 -20 7 -37 29 -21 15 11 15 13 0 23 -13 7 -21 7 -29
-2z"/>
<path d="M1025 1999 c-4 -6 -3 -15 3 -21 6 -6 11 -4 15 6 7 18 -9 31 -18 15z"/>
<path d="M1206 2002 c-2 -4 -1 -14 3 -21 6 -10 10 -9 14 3 6 16 -8 32 -17 18z"/>
<path d="M1578 1996 c-13 -10 -13 -13 -2 -24 12 -11 17 -11 28 0 19 19 -4 40
-26 24z"/>
<path d="M813 1962 c-13 -22 7 -45 24 -27 7 8 7 16 -1 27 -11 15 -13 15 -23 0z"/>
<path d="M1413 1962 c-13 -22 7 -45 24 -27 7 8 7 16 -1 27 -11 15 -13 15 -23
0z"/>
<path d="M1114 1952 c-16 -25 8 -48 27 -26 10 12 10 18 -2 29 -13 13 -16 12
-25 -3z"/>
<path d="M1468 1903 c-14 -21 -30 -49 -37 -63 l-12 -25 18 24 c26 35 65 101
60 101 -2 0 -15 -17 -29 -37z"/>
<path d="M955 1920 c-3 -5 -1 -10 4 -10 6 0 11 5 11 10 0 6 -2 10 -4 10 -3 0
-8 -4 -11 -10z"/>
<path d="M1280 1919 c0 -5 5 -7 10 -4 6 3 10 8 10 11 0 2 -4 4 -10 4 -5 0 -10
-5 -10 -11z"/>
<path d="M781 1885 c12 -22 29 -47 37 -55 20 -20 -13 37 -40 71 -17 20 -16 18
3 -16z"/>
<path d="M900 1899 c0 -13 5 -31 10 -39 7 -11 8 -5 4 20 -8 43 -14 51 -14 19z"/>
<path d="M1336 1889 c-8 -42 0 -50 9 -9 4 17 5 34 2 36 -2 3 -7 -10 -11 -27z"/>
<path d="M546 1901 c-4 -5 -2 -12 3 -15 5 -4 12 -2 15 3 4 5 2 12 -3 15 -5 4
-12 2 -15 -3z"/>
<path d="M1221 1894 c0 -11 3 -14 6 -6 3 7 2 16 -1 19 -3 4 -6 -2 -5 -13z"/>
<path d="M1686 1901 c-4 -5 -2 -12 3 -15 5 -4 12 -2 15 3 4 5 2 12 -3 15 -5 4
-12 2 -15 -3z"/>
<path d="M661 1843 c23 -35 49 -69 57 -75 18 -14 -34 61 -74 107 -14 17 -7 2
17 -32z"/>
<path d="M1575 1838 c-62 -80 -75 -102 -37 -60 34 38 95 122 89 122 -2 0 -26
-28 -52 -62z"/>
<path d="M1090 1873 c-8 -3 -30 -19 -48 -34 -18 -16 -39 -29 -48 -29 -35 0
-134 -43 -196 -86 -104 -71 -181 -175 -224 -304 -29 -84 -26 -263 4 -351 67
-195 236 -342 442 -385 155 -32 322 8 456 109 276 209 301 622 53 868 -69 68
-179 131 -251 144 -21 4 -49 18 -64 32 -41 38 -85 51 -124 36z m113 -43 c61
-68 14 -169 -79 -170 -104 0 -141 129 -54 188 46 31 94 24 133 -18z m-187 -80
c1 -67 -18 -72 -44 -10 -21 51 -19 58 23 59 17 1 20 -6 21 -49z m269 41 c9
-15 -26 -91 -42 -91 -10 0 -13 6 -9 16 3 9 6 31 6 50 0 27 4 34 19 34 11 0 22
-4 26 -9z m117 -47 c94 -47 224 -197 252 -290 5 -17 0 -23 -33 -32 -56 -17
-57 -17 -82 35 -13 26 -38 64 -57 85 l-35 38 39 35 c22 19 36 34 32 35 -4 0
-23 -14 -42 -31 l-35 -30 -38 30 c-21 16 -59 40 -85 51 -27 12 -48 24 -48 28
0 3 7 25 16 48 18 48 17 48 116 -2z m-440 -9 l17 -45 -36 -15 c-20 -8 -58 -31
-85 -50 l-49 -36 -28 20 c-54 39 -56 46 -17 78 46 36 146 93 166 93 9 0 22
-18 32 -45z m95 -65 c35 -27 102 -27 138 2 26 21 28 21 80 4 63 -20 158 -87
203 -144 76 -95 113 -232 94 -345 -11 -68 -49 -167 -63 -167 -14 0 -73 87 -81
118 -4 18 -6 10 -5 -24 1 -29 5 -50 9 -48 4 3 13 -16 19 -40 6 -25 15 -43 20
-40 5 3 9 -1 9 -10 0 -21 -93 -99 -159 -132 -54 -28 -62 -29 -196 -29 -134 0
-143 2 -197 29 -31 16 -78 47 -104 71 l-48 42 19 56 c10 31 22 54 26 52 4 -3
10 24 14 60 3 36 10 67 14 70 5 2 6 16 3 30 -2 14 1 38 8 55 11 27 10 31 -19
56 -42 35 -40 101 4 118 18 7 58 -11 51 -22 -7 -12 7 -29 32 -36 29 -9 29 12
1 48 -25 32 -66 34 -103 5 -37 -29 -36 -76 4 -114 20 -19 28 -35 24 -45 -4 -8
-12 -52 -19 -96 -12 -79 -29 -116 -78 -166 -17 -18 -19 -17 -42 36 -105 237 7
511 250 609 53 21 62 21 92 -3z m-294 -61 l37 -31 -30 -34 c-16 -19 -41 -57
-55 -84 -14 -28 -31 -50 -38 -50 -22 0 -87 21 -87 28 1 30 110 202 129 202 3
0 23 -14 44 -31z m-118 -205 l37 -7 -9 -51 c-4 -28 -8 -75 -8 -104 0 -56 1
-55 -67 -68 l-38 -6 0 69 c0 92 19 186 36 179 7 -3 29 -8 49 -12z m1034 -34
c14 -66 14 -200 0 -200 -5 0 -29 5 -52 11 l-42 10 0 62 c0 34 -4 81 -8 103
l-8 42 38 10 c59 16 61 15 72 -38z m-1000 -236 c7 -26 24 -69 38 -97 l25 -51
-38 -33 c-22 -18 -34 -33 -28 -33 6 0 21 11 34 25 13 14 29 25 35 25 6 0 29
-18 50 -40 22 -22 56 -52 77 -66 l37 -26 -22 -44 c-11 -24 -24 -44 -28 -44
-16 0 -127 90 -163 131 -43 51 -112 187 -121 240 -7 35 -6 36 37 46 24 6 46
11 49 12 4 0 12 -20 18 -45z m969 31 c21 -4 32 -12 32 -24 0 -48 -74 -211 -95
-211 -5 0 -24 14 -42 30 l-32 29 29 57 c16 32 32 75 35 96 5 30 11 38 23 34
10 -2 32 -7 50 -11z m-78 -264 c-13 -25 -110 -112 -148 -134 l-31 -18 -21 40
c-26 51 -25 53 8 73 15 9 49 39 77 67 l49 50 38 -30 c31 -25 36 -34 28 -48z
m-203 -163 c-20 -13 -138 -46 -189 -53 l-48 -6 0 55 0 56 38 0 c20 1 66 11
102 23 l65 22 22 -45 c17 -33 19 -46 10 -52z m-379 72 c35 -11 79 -20 98 -20
l34 0 0 -56 0 -55 -47 6 c-65 9 -181 43 -189 56 -6 11 24 89 35 89 3 0 35 -9
69 -20z"/>
<path d="M1065 1825 c-35 -34 -34 -93 0 -125 56 -53 145 -15 145 62 0 52 -35
88 -85 88 -25 0 -44 -8 -60 -25z m109 -6 c18 -14 26 -30 26 -53 0 -64 -54
-100 -109 -72 -32 17 -41 34 -41 76 0 33 40 70 75 70 12 0 34 -9 49 -21z"/>
<path d="M1096 1774 c-12 -17 -15 -29 -8 -36 16 -16 33 1 26 28 -5 18 -2 24
11 24 9 0 16 -7 14 -17 -3 -34 1 -43 19 -43 11 0 13 3 6 8 -7 4 -14 18 -15 32
-5 34 -33 36 -53 4z m14 -24 c0 -5 -4 -10 -10 -10 -5 0 -10 5 -10 10 0 6 5 10
10 10 6 0 10 -4 10 -10z"/>
<path d="M1390 1703 c-16 -7 -30 -23 -30 -37 0 -5 11 1 24 13 15 14 30 20 37
16 8 -5 10 -4 5 3 -8 13 -13 14 -36 5z"/>
<path d="M1526 1533 c-4 -9 0 -23 8 -32 14 -13 17 -13 34 2 10 9 22 14 25 10
4 -3 7 -3 7 1 0 14 -29 36 -48 36 -11 0 -23 -8 -26 -17z m44 -7 c0 -20 -19
-31 -32 -18 -6 6 -7 15 -4 21 10 16 36 13 36 -3z"/>
<path d="M852 1718 c9 -22 -2 -30 -21 -15 -14 10 -14 10 -4 -4 7 -9 11 -18 9
-20 -2 -2 2 -10 10 -17 12 -11 14 -9 14 9 0 19 2 20 18 8 15 -12 16 -12 5 2
-7 9 -11 18 -9 20 2 2 -3 11 -12 19 -14 13 -15 12 -10 -2z"/>
<path d="M985 1631 c-7 -12 12 -24 25 -16 11 7 4 25 -10 25 -5 0 -11 -4 -15
-9z"/>
<path d="M1172 1608 c6 -18 28 -21 28 -4 0 9 -7 16 -16 16 -9 0 -14 -5 -12
-12z"/>
<path d="M1080 1585 c0 -9 5 -15 11 -13 6 2 11 8 11 13 0 5 -5 11 -11 13 -6 2
-11 -4 -11 -13z"/>
<path d="M1275 1571 c-3 -5 -1 -12 5 -16 5 -3 10 1 10 9 0 18 -6 21 -15 7z"/>
<path d="M1377 1564 c-14 -15 -6 -34 14 -34 14 0 19 5 17 17 -3 18 -20 27 -31
17z"/>
<path d="M830 1535 c0 -10 7 -15 18 -13 21 4 19 22 -2 26 -10 2 -16 -3 -16
-13z"/>
<path d="M999 1528 c-8 -10 -21 -18 -29 -17 -27 2 -60 -13 -60 -27 0 -14 8
-15 80 -18 19 -1 40 -4 46 -8 8 -5 14 2 18 18 6 24 8 25 24 11 14 -13 19 -13
30 -1 13 14 42 9 42 -9 0 -5 8 -2 19 7 18 16 19 16 25 -9 4 -17 11 -23 19 -18
24 15 39 12 34 -7 -3 -14 0 -18 14 -15 16 3 17 0 8 -23 -9 -25 -8 -24 20 8
l30 35 -6 -39 -6 -38 26 17 c15 9 25 21 22 25 -3 4 2 11 11 14 8 3 13 10 10
15 -4 5 2 12 11 14 10 3 3 5 -14 6 -18 0 -33 5 -33 10 0 5 -12 12 -27 16 -15
3 -33 15 -41 26 -12 17 -22 19 -85 14 -40 -3 -95 -1 -123 3 -45 8 -54 6 -65
-10z"/>
<path d="M750 1450 c0 -5 5 -10 11 -10 5 0 7 5 4 10 -3 6 -8 10 -11 10 -2 0
-4 -4 -4 -10z"/>
<path d="M1429 1436 c29 -39 27 -52 -14 -93 -28 -28 -33 -38 -25 -53 6 -10 10
-30 10 -44 0 -14 4 -26 9 -26 8 0 2 40 -10 76 -2 5 11 25 29 43 39 39 40 61 6
98 l-26 28 21 -29z"/>
<path d="M1486 1431 c-4 -5 -2 -12 3 -15 5 -4 12 -2 15 3 4 5 2 12 -3 15 -5 4
-12 2 -15 -3z"/>
<path d="M841 1371 c14 -22 59 -60 59 -49 0 2 -17 19 -37 38 -28 26 -34 29
-22 11z"/>
<path d="M1377 1345 c-20 -14 -37 -28 -37 -31 0 -7 59 29 72 44 16 18 7 15
-35 -13z"/>
<path d="M1487 1334 c-14 -14 -7 -35 11 -32 9 2 17 10 17 17 0 16 -18 25 -28
15z"/>
<path d="M760 1320 c0 -5 5 -10 10 -10 6 0 10 5 10 10 0 6 -4 10 -10 10 -5 0
-10 -4 -10 -10z"/>
<path d="M999 1306 c6 -8 24 -16 39 -19 l27 -5 -24 19 c-28 23 -60 27 -42 5z"/>
<path d="M1209 1301 l-24 -19 27 5 c32 6 60 33 35 33 -8 0 -25 -9 -38 -19z"/>
<path d="M734 1259 c-10 -17 13 -36 27 -22 12 12 4 33 -11 33 -5 0 -12 -5 -16
-11z"/>
<path d="M915 1247 c-3 -12 -2 -34 4 -47 9 -22 10 -19 10 23 1 51 -5 61 -14
24z"/>
<path d="M1292 1240 c0 -14 2 -19 5 -12 2 6 2 18 0 25 -3 6 -5 1 -5 -13z"/>
<path d="M1060 1228 c-12 -22 -12 -22 6 -6 10 10 15 20 12 24 -4 3 -12 -5 -18
-18z"/>
<path d="M1342 1233 c-7 -12 -12 -32 -11 -45 1 -20 3 -18 15 11 17 38 13 67
-4 34z"/>
<path d="M961 1217 c0 -15 6 -44 14 -64 19 -45 19 -51 -2 -56 -17 -4 -17 -5 0
-6 23 -1 22 -13 -3 -29 -11 -7 -20 -17 -20 -24 0 -6 7 -4 18 5 26 24 49 23 31
0 -12 -16 -12 -17 1 -7 8 6 28 11 43 12 45 3 82 28 97 67 10 27 19 35 32 32
13 -4 18 1 18 14 0 17 -7 19 -62 16 -48 -1 -63 -6 -66 -18 -2 -11 4 -15 20
-15 12 1 23 -4 23 -11 0 -6 3 -15 8 -19 14 -14 7 -31 -18 -42 -57 -26 -102 -5
-93 43 3 13 2 22 -3 20 -7 -5 -24 39 -32 85 -4 24 -4 24 -6 -3z"/>
<path d="M1180 1231 c0 -5 5 -13 10 -16 6 -3 10 -2 10 4 0 5 -4 13 -10 16 -5
3 -10 2 -10 -4z"/>
<path d="M1460 1225 c0 -8 5 -15 10 -15 6 0 10 7 10 15 0 8 -4 15 -10 15 -5 0
-10 -7 -10 -15z"/>
<path d="M1274 1175 c-5 -22 -14 -39 -19 -38 -6 1 -10 -15 -10 -35 0 -34 -2
-37 -32 -40 -18 -2 -42 2 -55 8 -22 11 -22 10 -4 -4 11 -9 28 -16 38 -16 10 0
18 -6 18 -14 0 -44 -113 -63 -150 -26 -27 27 -26 10 1 -24 36 -45 66 -51 106
-20 19 14 39 38 46 53 15 36 15 35 31 22 12 -10 13 -8 9 10 l-6 23 34 -23 34
-23 -27 26 c-34 30 -35 36 -5 37 l22 0 -22 9 c-27 11 -27 9 -7 48 8 18 14 40
12 49 -2 10 -8 1 -14 -22z"/>
<path d="M1400 1205 c0 -5 5 -17 10 -25 5 -8 10 -10 10 -5 0 6 -5 17 -10 25
-5 8 -10 11 -10 5z"/>
<path d="M872 1155 c0 -16 2 -22 5 -12 2 9 2 23 0 30 -3 6 -5 -1 -5 -18z"/>
<path d="M1370 1154 c0 -14 4 -23 9 -20 5 3 7 15 4 26 -7 28 -13 25 -13 -6z"/>
<path d="M1481 1171 c-15 -10 -8 -41 9 -41 15 0 25 29 14 40 -5 5 -15 5 -23 1z"/>
<path d="M756 1161 c-4 -5 -2 -12 3 -15 5 -4 12 -2 15 3 4 5 2 12 -3 15 -5 4
-12 2 -15 -3z"/>
<path d="M1342 1105 c0 -16 2 -22 5 -12 2 9 2 23 0 30 -3 6 -5 -1 -5 -18z"/>
<path d="M902 1100 c0 -14 2 -19 5 -12 2 6 2 18 0 25 -3 6 -5 1 -5 -13z"/>
<path d="M864 1010 c3 -61 21 -129 31 -118 3 3 -4 45 -15 94 l-19 89 3 -65z"/>
<path d="M1371 977 c-7 -34 -15 -71 -17 -82 -2 -11 7 3 21 30 25 50 32 99 17
109 -5 3 -14 -23 -21 -57z"/>
<path d="M832 960 c0 -14 2 -19 5 -12 2 6 2 18 0 25 -3 6 -5 1 -5 -13z"/>
<path d="M922 950 c0 -19 2 -27 5 -17 2 9 2 25 0 35 -3 9 -5 1 -5 -18z"/>
<path d="M1323 945 c0 -22 2 -30 4 -17 2 12 2 30 0 40 -3 9 -5 -1 -4 -23z"/>
<path d="M1411 954 c0 -11 3 -14 6 -6 3 7 2 16 -1 19 -3 4 -6 -2 -5 -13z"/>
<path d="M960 889 c0 -14 6 -34 14 -45 13 -17 14 -15 6 19 -10 47 -20 59 -20
26z"/>
<path d="M1022 875 c0 -16 2 -22 5 -12 2 9 2 23 0 30 -3 6 -5 -1 -5 -18z"/>
<path d="M1270 863 c0 -22 2 -25 10 -13 13 20 13 40 0 40 -5 0 -10 -12 -10
-27z"/>
<path d="M1221 864 c0 -11 3 -14 6 -6 3 7 2 16 -1 19 -3 4 -6 -2 -5 -13z"/>
<path d="M684 1552 c-15 -10 -37 -52 -27 -52 4 0 16 14 25 30 18 32 19 33 2
22z"/>
<path d="M692 1505 c-6 -14 -8 -25 -3 -25 4 0 13 11 19 25 6 14 8 25 3 25 -4
0 -13 -11 -19 -25z"/>
<path d="M623 1332 c-13 -2 -23 -8 -23 -13 0 -6 4 -8 9 -4 5 3 12 1 16 -5 5
-9 -15 -15 -38 -11 -5 1 -7 -8 -5 -20 4 -28 28 -38 28 -12 0 15 -2 16 -10 3
-7 -10 -10 -11 -10 -2 0 7 11 17 24 21 13 5 26 17 30 27 8 20 7 21 -21 16z"/>
<path d="M1605 1286 c0 -29 2 -31 22 -21 16 7 18 11 8 13 -8 2 -15 10 -15 17
0 8 -3 16 -7 18 -5 3 -8 -9 -8 -27z"/>
<path d="M1662 1285 c0 -16 2 -22 5 -12 2 9 2 23 0 30 -3 6 -5 -1 -5 -18z"/>
<path d="M620 1065 c0 -9 6 -12 15 -9 8 4 22 1 29 -5 9 -8 16 -8 20 -2 4 5 2
12 -4 16 -5 3 -10 4 -10 1 0 -3 -11 -1 -25 4 -20 7 -25 6 -25 -5z"/>
<path d="M761 878 c-13 -22 -13 -22 4 -8 17 14 18 13 12 -4 -6 -16 -5 -17 8
-6 13 11 14 8 11 -19 -5 -41 5 -48 20 -14 10 24 9 31 -9 51 -11 12 -23 22 -26
22 -4 0 -12 -10 -20 -22z"/>
<path d="M1574 1076 c-9 -23 0 -51 15 -51 8 0 16 6 19 13 2 6 -1 12 -8 12 -6
0 -8 -4 -5 -10 3 -5 1 -10 -6 -10 -7 0 -10 11 -7 30 5 32 1 39 -8 16z"/>
<path d="M1605 1080 c-4 -6 -4 -14 -1 -17 3 -4 6 -1 6 6 0 7 5 9 11 5 6 -3 8
-15 5 -27 -3 -14 -2 -17 5 -10 13 13 8 45 -8 50 -6 2 -14 -1 -18 -7z"/>
<path d="M1447 893 c-6 -11 -2 -51 5 -59 4 -3 12 -3 18 1 8 5 6 13 -6 26 -9
11 -14 22 -10 26 4 4 15 -3 25 -16 18 -23 41 -22 41 2 0 9 -3 8 -8 -1 -7 -9
-13 -8 -27 8 -19 21 -31 25 -38 13z"/>
<path d="M1215 770 c-11 -5 -15 -9 -8 -9 6 -1 14 -11 16 -23 3 -19 5 -17 7 7
2 30 2 30 10 5 l8 -25 2 25 1 25 10 -23 c5 -13 6 -29 2 -35 -4 -8 -1 -8 9 1 9
7 13 22 10 37 -5 26 -28 32 -67 15z"/>
<path d="M986 765 c-9 -25 -7 -32 5 -12 14 23 27 21 32 -5 5 -20 5 -20 4 2 -2
29 -31 39 -41 15z"/>
<path d="M985 720 c11 -5 27 -9 35 -9 9 0 8 4 -5 9 -11 5 -27 9 -35 9 -9 0 -8
-4 5 -9z"/>
<path d="M717 1856 c-3 -8 -2 -18 3 -21 13 -8 24 15 12 27 -6 6 -11 4 -15 -6z"/>
<path d="M1510 1851 c0 -6 5 -13 10 -16 6 -3 10 1 10 9 0 9 -4 16 -10 16 -5 0
-10 -4 -10 -9z"/>
<path d="M605 1820 c-3 -5 1 -10 10 -10 9 0 13 5 10 10 -3 6 -8 10 -10 10 -2
0 -7 -4 -10 -10z"/>
<path d="M1626 1821 c-4 -5 -2 -12 3 -15 5 -4 12 -2 15 3 4 5 2 12 -3 15 -5 4
-12 2 -15 -3z"/>
<path d="M605 1746 c17 -15 39 -31 50 -37 11 -5 7 2 -10 16 -16 14 -39 31 -50
36 -11 6 -6 -1 10 -15z"/>
<path d="M1610 1730 c-19 -17 -26 -27 -15 -21 19 9 63 51 54 51 -3 0 -20 -14
-39 -30z"/>
<path d="M571 1701 c-10 -6 -9 -10 3 -14 8 -3 18 -2 21 3 8 13 -9 20 -24 11z"/>
<path d="M1655 1700 c-8 -13 9 -20 24 -11 10 6 9 10 -3 14 -8 3 -18 2 -21 -3z"/>
<path d="M580 1636 c0 -2 8 -10 18 -17 15 -13 16 -12 3 4 -13 16 -21 21 -21
13z"/>
<path d="M1650 1630 c-9 -6 -10 -10 -3 -10 6 0 15 5 18 10 8 12 4 12 -15 0z"/>
<path d="M556 1541 c-4 -5 -2 -12 3 -15 5 -4 12 -2 15 3 4 5 2 12 -3 15 -5 4
-12 2 -15 -3z"/>
<path d="M1676 1541 c-4 -5 -2 -12 3 -15 5 -4 12 -2 15 3 4 5 2 12 -3 15 -5 4
-12 2 -15 -3z"/>
<path d="M554 979 c-3 -6 -1 -16 5 -22 8 -8 11 -5 11 11 0 24 -5 28 -16 11z"/>
<path d="M1680 970 c0 -19 3 -21 12 -12 9 9 9 15 0 24 -9 9 -12 7 -12 -12z"/>
<path d="M584 874 c-18 -14 -18 -15 4 -4 12 6 22 13 22 15 0 8 -5 6 -26 -11z"/>
<path d="M1640 886 c0 -3 9 -10 20 -16 11 -6 20 -8 20 -6 0 3 -9 10 -20 16
-11 6 -20 8 -20 6z"/>
<path d="M1660 810 c0 -19 3 -21 12 -12 9 9 9 15 0 24 -9 9 -12 7 -12 -12z"/>
<path d="M570 811 c0 -6 5 -13 10 -16 6 -3 10 1 10 9 0 9 -4 16 -10 16 -5 0
-10 -4 -10 -9z"/>
<path d="M632 779 c-56 -41 -54 -48 3 -9 39 27 53 40 42 40 -2 0 -22 -14 -45
-31z"/>
<path d="M1573 803 c3 -5 27 -23 54 -42 l48 -33 -35 31 c-37 33 -76 59 -67 44z"/>
<path d="M681 690 c-62 -84 -60 -94 2 -12 48 63 60 82 53 82 -2 0 -27 -31 -55
-70z"/>
<path d="M1516 750 c10 -20 116 -160 121 -160 5 0 -62 93 -101 140 -15 19 -25
28 -20 20z"/>
<path d="M600 690 c0 -5 5 -10 10 -10 6 0 10 5 10 10 0 6 -4 10 -10 10 -5 0
-10 -4 -10 -10z"/>
<path d="M1630 690 c0 -5 5 -10 11 -10 5 0 7 5 4 10 -3 6 -8 10 -11 10 -2 0
-4 -4 -4 -10z"/>
<path d="M787 630 c-20 -33 -34 -60 -32 -60 7 0 76 112 72 116 -2 3 -20 -23
-40 -56z"/>
<path d="M1420 686 c0 -10 60 -106 66 -106 6 0 -19 47 -45 85 -12 17 -21 26
-21 21z"/>
<path d="M715 660 c-8 -13 9 -20 24 -11 10 6 9 10 -3 14 -8 3 -18 2 -21 -3z"/>
<path d="M1511 661 c-10 -6 -9 -10 3 -14 8 -3 18 -2 21 3 8 13 -9 20 -24 11z"/>
<path d="M906 635 c-3 -9 -6 -26 -5 -38 1 -14 4 -9 9 13 9 37 7 52 -4 25z"/>
<path d="M1331 640 c1 -8 5 -26 9 -40 l8 -25 1 25 c0 14 -4 32 -9 40 -9 13
-10 13 -9 0z"/>
<path d="M1021 614 c0 -11 3 -14 6 -6 3 7 2 16 -1 19 -3 4 -6 -2 -5 -13z"/>
<path d="M1222 610 c0 -14 2 -19 5 -12 2 6 2 18 0 25 -3 6 -5 1 -5 -13z"/>
<path d="M546 611 c-4 -5 -2 -12 3 -15 5 -4 12 -2 15 3 4 5 2 12 -3 15 -5 4
-12 2 -15 -3z"/>
<path d="M1686 611 c-4 -5 -2 -12 3 -15 5 -4 12 -2 15 3 4 5 2 12 -3 15 -5 4
-12 2 -15 -3z"/>
<path d="M1286 591 c-4 -5 -2 -12 3 -15 5 -4 12 -2 15 3 4 5 2 12 -3 15 -5 4
-12 2 -15 -3z"/>
<path d="M955 580 c3 -5 8 -10 11 -10 2 0 4 5 4 10 0 6 -5 10 -11 10 -5 0 -7
-4 -4 -10z"/>
<path d="M1114 576 c-17 -19 12 -41 30 -23 12 11 11 15 -3 24 -11 7 -19 7 -27
-1z"/>
<path d="M814 566 c-8 -8 -7 -15 0 -22 8 -8 15 -7 22 0 8 8 7 15 0 22 -8 8
-15 7 -22 0z"/>
<path d="M1412 567 c-14 -17 9 -38 24 -23 8 8 7 15 -2 23 -9 9 -15 9 -22 0z"/>
<path d="M644 536 c-8 -9 -8 -17 1 -29 11 -16 14 -16 25 -2 11 13 11 18 -1 30
-11 11 -16 11 -25 1z"/>
<path d="M1579 534 c-18 -22 5 -44 25 -24 12 13 12 17 1 27 -10 10 -16 9 -26
-3z"/>
<path d="M1026 521 c-4 -5 -2 -12 3 -15 5 -4 12 -2 15 3 4 5 2 12 -3 15 -5 4
-12 2 -15 -3z"/>
<path d="M1206 521 c-4 -5 -2 -12 3 -15 5 -4 12 -2 15 3 4 5 2 12 -3 15 -5 4
-12 2 -15 -3z"/>
<path d="M962 323 l-2 -63 43 2 42 1 -37 4 -37 4 -4 57 -3 57 -2 -62z"/>
<path d="M1060 320 l0 -60 48 2 47 1 -42 4 c-35 3 -43 8 -43 24 0 15 7 19 38
20 l37 2 -35 6 c-50 9 -55 41 -6 41 20 0 36 5 36 10 0 6 -18 10 -40 10 l-40 0
0 -60z"/>
<path d="M1181 354 c-25 -32 -26 -43 -5 -72 10 -15 25 -22 48 -22 59 0 87 59
46 100 -28 28 -64 25 -89 -6z m88 -16 c17 -45 -39 -87 -75 -58 -17 15 -18 52
-2 68 21 21 68 15 77 -10z"/>
<path d="M471 213 c0 -7 -8 -13 -17 -13 -13 0 -14 -3 -5 -13 6 -8 8 -16 6 -19
-3 -3 3 -8 15 -11 13 -3 20 0 20 8 0 7 6 16 13 18 7 4 6 6 -5 6 -9 1 -19 9
-21 19 -3 9 -5 11 -6 5z"/>
<path d="M1771 208 c-1 -10 -9 -18 -18 -19 -11 0 -13 -3 -5 -6 6 -2 12 -11 12
-18 0 -8 7 -11 20 -8 12 3 18 8 15 11 -2 3 0 11 6 19 9 10 8 13 -4 13 -8 0
-18 6 -20 13 -3 7 -6 5 -6 -5z"/>
</g>
</svg>
